<svg width="26" height="26" viewBox="0 0 26 26" fill="#595959" xmlns="http://www.w3.org/2000/svg">
<path d="M21.1747 15.4873L13.8622 22.7998C13.749 22.9134 13.6145 23.0035 13.4663 23.065C13.3182 23.1266 13.1593 23.1582 12.9989 23.1582C12.8385 23.1582 12.6797 23.1266 12.5316 23.065C12.3834 23.0035 12.2489 22.9134 12.1357 22.7998L4.82316 15.4873C4.5942 15.2583 4.46558 14.9478 4.46558 14.624C4.46558 14.3002 4.5942 13.9897 4.82316 13.7607C5.05212 13.5317 5.36265 13.4031 5.68644 13.4031C6.01023 13.4031 6.32076 13.5317 6.54972 13.7607L11.7812 18.9922V4.0625C11.7812 3.73927 11.9096 3.42927 12.1382 3.20071C12.3667 2.97215 12.6767 2.84375 13 2.84375C13.3232 2.84375 13.6332 2.97215 13.8617 3.20071C14.0903 3.42927 14.2187 3.73927 14.2187 4.0625V18.9922L19.4502 13.7597C19.6791 13.5307 19.9897 13.4021 20.3135 13.4021C20.6373 13.4021 20.9478 13.5307 21.1768 13.7597C21.4057 13.9886 21.5343 14.2992 21.5343 14.623C21.5343 14.9468 21.4057 15.2573 21.1768 15.4862L21.1747 15.4873Z" fill={fill} fill-opacity="0.6"/>
</svg>
