<svg width="22" height="22" viewBox="0 0 22 22" fill="none" xmlns="http://www.w3.org/2000/svg">
<g clip-path="url(#clip0_1437_3819)">
<path d="M10.8572 21.7241H21.1159C21.1159 21.7241 21.0754 19.7907 20.1781 18.3575C17.8186 14.5908 10.8572 18.7069 10.8572 18.7069V21.7241Z" fill="#282828"/>
<path d="M10.8621 21.7241H0.603455C0.603455 21.7241 0.643886 19.7907 1.54121 18.3575C3.9013 14.5908 10.8621 18.7069 10.8621 18.7069V21.7241Z" fill="#282828"/>
<path d="M16.8917 17.5H4.82759C3.01724 17.5 1.83931 19.6121 2.41379 21.7241H19.3055C19.8806 19.6121 18.7021 17.5 16.8917 17.5Z" fill="#959595"/>
<path d="M8.6106 18.1282C9.49525 18.7709 10.3992 18.7196 10.8265 18.7196C11.2537 18.7196 12.1504 18.7709 13.0351 18.1282V14.7103H8.6106V18.1282Z" fill="#DADADA"/>
<path d="M8.60757 15.1942C9.2243 15.8912 9.98947 16.0801 10.821 16.0801C11.6532 16.0801 12.4183 15.8918 13.0357 15.1942V13.4225H8.60757V15.1942Z" fill="#C5C5C5"/>
<path d="M13.0888 1.57802C11.9398 1.2063 9.23638 1.30768 8.56052 2.1863C6.80327 2.22009 4.74189 3.80837 4.47155 5.90354C4.20422 7.97759 4.80043 8.94009 5.01224 10.4994C5.25241 12.2663 6.24569 12.8311 7.03983 13.0677C8.18215 14.5769 9.39689 14.5123 11.4359 14.5123C15.4181 14.5123 17.3147 11.8481 17.4825 7.32225C17.5839 4.58561 15.9775 2.51216 13.0888 1.57802Z" fill="#303030"/>
<path d="M15.3662 7.51656C14.9806 6.98311 14.4876 6.55346 13.4062 6.40139C13.8117 6.58725 14.2003 7.22932 14.251 7.58414C14.3017 7.93897 14.3524 8.22621 14.0314 7.87139C12.7454 6.44966 11.3448 7.00966 9.95629 6.1413C8.98655 5.53483 8.69146 4.8638 8.69146 4.8638C8.69146 4.8638 8.57318 5.75932 7.10318 6.67173C6.67715 6.93604 6.16844 7.52561 5.88663 8.39518C5.68387 9.02035 5.74663 9.57794 5.74663 10.5308C5.74663 13.3121 8.03913 15.651 10.8669 15.651C13.6947 15.651 15.9872 13.2922 15.9872 10.5308C15.9865 8.8007 15.8055 8.12483 15.3662 7.51656Z" fill="#E7E7E7"/>
<path d="M10.7939 14.207C9.82475 14.207 9.31725 13.7279 9.26294 13.6729C9.19128 13.5948 9.15239 13.492 9.15434 13.386C9.15628 13.28 9.1989 13.1788 9.27338 13.1033C9.34786 13.0278 9.44851 12.9838 9.5545 12.9804C9.6605 12.9771 9.76373 13.0146 9.84286 13.0852C9.86398 13.1045 10.1754 13.3815 10.7939 13.3815C11.4203 13.3815 11.7323 13.096 11.7449 13.0846C11.8241 13.0101 11.9293 12.9697 12.0379 12.972C12.1466 12.9742 12.25 13.019 12.326 13.0966C12.4829 13.259 12.4829 13.5136 12.3236 13.6729C12.2693 13.7279 11.7624 14.207 10.7939 14.207Z" fill="#777777"/>
<path d="M14.7984 7.84482C13.1111 7.84482 11.9863 8.36197 10.8621 8.36197C9.73786 8.36197 8.61243 7.84482 6.92579 7.84482C5.23855 7.84482 6.36338 10.8035 6.92579 11.3207C7.4882 11.8378 9.73786 10.8035 10.8621 10.8035C11.9863 10.8035 14.236 11.8378 14.7984 11.3207C15.3608 10.8035 16.4856 7.84482 14.7984 7.84482Z" fill="#A6A6A6"/>
<path d="M8.74999 10.421C8.61468 10.4203 8.48511 10.3662 8.38949 10.2705C8.29387 10.1748 8.23995 10.0451 8.23947 9.90984V9.39992C8.23947 9.11932 8.46939 8.8894 8.74999 8.8894C8.8853 8.88988 9.01493 8.9438 9.11067 9.03942C9.2064 9.13504 9.26047 9.26462 9.26111 9.39992V9.90984C9.26063 10.0452 9.20663 10.175 9.11088 10.2707C9.01513 10.3665 8.8854 10.4205 8.74999 10.421ZM12.9741 10.421C12.8388 10.4203 12.7092 10.3662 12.6136 10.2705C12.518 10.1748 12.4641 10.0451 12.4636 9.90984V9.39992C12.4636 9.11932 12.6935 8.8894 12.9741 8.8894C13.2547 8.8894 13.4846 9.11932 13.4846 9.39992V9.90984C13.4842 10.0451 13.4302 10.1748 13.3346 10.2705C13.239 10.3662 13.1094 10.4203 12.9741 10.421Z" fill="black"/>
<path d="M11.3309 12.3707H10.3111C10.2435 12.3705 10.1786 12.3436 10.1308 12.2958C10.083 12.2479 10.056 12.1831 10.0558 12.1154V12.0231C10.0558 11.8825 10.1699 11.7672 10.3111 11.7672H11.3309C11.4715 11.7672 11.5868 11.8819 11.5868 12.0231V12.1154C11.5868 12.256 11.4721 12.3707 11.3309 12.3707Z" fill="#777777"/>
<path d="M14.5165 21.7241C13.7858 21.0036 12.425 20.5172 10.8621 20.5172C9.29914 20.5172 7.93836 21.0036 7.20758 21.7241H14.5165ZM10.8621 18.7202C10.8621 18.7202 7.84483 18.7069 6.63793 19.3103C6.63793 19.3103 5.84198 17.5133 4.40336 17.3039C2.62017 17.0444 1.54181 18.3575 1.54181 18.3575C1.54181 18.3575 2.07526 17.2803 3.30086 16.6703C4.48845 16.0795 5.73758 16.7155 5.73758 16.7155C5.73758 16.7155 6.46172 16.2696 7.06517 16.2696C7.70845 16.2696 8.32939 16.3263 8.67457 16.8211C9.10845 17.4433 10.2586 18.7202 10.8621 18.7202Z" fill="#4E4E4E"/>
<path d="M10.8572 18.7202C10.8572 18.7202 13.8745 18.7069 15.0814 19.3103C15.0814 19.3103 15.8773 17.5133 17.3159 17.3039C19.0991 17.0444 20.1775 18.3575 20.1775 18.3575C20.1775 18.3575 19.644 17.2803 18.4184 16.6702C17.2309 16.0795 15.9817 16.7149 15.9817 16.7149C15.9817 16.7149 15.2576 16.269 14.6541 16.269C14.0109 16.269 13.3899 16.3257 13.0447 16.8205C12.6115 17.4433 11.4607 18.7202 10.8572 18.7202Z" fill="#4E4E4E"/>
</g>
<defs>
<clipPath id="clip0_1437_3819">
<rect width="21.7241" height="21.7241" fill="white"/>
</clipPath>
</defs>
</svg>