<svg width="35" height="35" viewBox="0 0 35 35" fill="none" xmlns="http://www.w3.org/2000/svg">
<circle cx="17.5" cy="17.5" r="17.5" fill="#7F2275"/>
<circle cx="17.5" cy="17.5" r="17.5" fill="#CACACA"/>
<path d="M5.23291 6.57303V15.2812L17.4143 16.6209L29.7243 15.2812V6.57303C24.44 7.04193 23.891 11.4295 24.277 13.5647H23.1189V3.18188C18.8984 3.71777 17.8146 7.00565 17.8003 8.5826V13.9415H16.9854V8.5826C16.9854 4.79791 13.4968 3.40517 11.7525 3.18188V13.5647H10.5515C11.3064 8.13882 7.32033 6.64281 5.23291 6.57303Z" fill="#092836"/>
<path fill-rule="evenodd" clip-rule="evenodd" d="M34.1362 22.9455C34.6968 21.2316 35 19.4012 35 17.5C35 16.2392 34.8667 15.0096 34.6133 13.8244L34.6092 13.816C32.4718 14.4282 26.0019 15.6525 17.2225 15.6525C8.44301 15.6525 2.34616 14.4282 0.395169 13.816L0.383975 13.837C0.132388 15.0183 0 16.2437 0 17.5C0 19.4878 0.331407 21.3981 0.941983 23.1788C3.9571 24.8047 10.6327 27.5481 17.2225 27.5481C24.1392 27.5481 31.2897 24.5257 34.1362 22.9455Z" fill="#082735"/>
<path fill-rule="evenodd" clip-rule="evenodd" d="M0.0195312 16.6679C2.5745 17.5141 8.832 18.923 17.1551 18.923C25.3775 18.923 32.0697 17.548 34.9821 16.6988C34.938 15.72 34.8135 14.7622 34.615 13.8317L34.6073 13.816C32.4698 14.4282 26 15.6525 17.2205 15.6525C8.44107 15.6525 2.34422 14.4282 0.393229 13.816L0.385417 13.8306C0.188913 14.7516 0.0648666 15.6995 0.0195312 16.6679Z" fill="#FCFFFF"/>
</svg>
