<svg width="16" height="16" viewBox="0 0 16 16" fill="black" xmlns="http://www.w3.org/2000/svg">
<path d="M3.3335 3.33301H4.66683V4.66634H3.3335V3.33301ZM6.00016 5.99967H4.66683V4.66634H6.00016V5.99967ZM7.3335 7.33301H6.00016V5.99967H7.3335V7.33301ZM8.66683 7.33301H7.3335V8.66634H6.00016V9.99967H4.66683V11.333H3.3335V12.6663H4.66683V11.333H6.00016V9.99967H7.3335V8.66634H8.66683V9.99967H10.0002V11.333H11.3335V12.6663H12.6668V11.333H11.3335V9.99967H10.0002V8.66634H8.66683V7.33301ZM10.0002 5.99967V7.33301H8.66683V5.99967H10.0002ZM11.3335 4.66634V5.99967H10.0002V4.66634H11.3335ZM11.3335 4.66634V3.33301H12.6668V4.66634H11.3335Z" fill={fill}/>
</svg>
