<svg width="20" height="20" viewBox="0 0 20 20" fill="black" xmlns="http://www.w3.org/2000/svg">
<path d="M4.1665 4.16663H5.83317V5.83329H4.1665V4.16663ZM7.49984 7.49996H5.83317V5.83329H7.49984V7.49996ZM9.1665 9.16663H7.49984V7.49996H9.1665V9.16663ZM10.8332 9.16663H9.1665V10.8333H7.49984V12.5H5.83317V14.1666H4.1665V15.8333H5.83317V14.1666H7.49984V12.5H9.1665V10.8333H10.8332V12.5H12.4998V14.1666H14.1665V15.8333H15.8332V14.1666H14.1665V12.5H12.4998V10.8333H10.8332V9.16663ZM12.4998 7.49996V9.16663H10.8332V7.49996H12.4998ZM14.1665 5.83329V7.49996H12.4998V5.83329H14.1665ZM14.1665 5.83329V4.16663H15.8332V5.83329H14.1665Z" fill={fill} />
</svg>
