<svg width="20" height="20" viewBox="0 0 20 20" xmlns="http://www.w3.org/2000/svg">
<path d="M1.6665 2.66699C1.6665 2.11471 2.11422 1.66699 2.6665 1.66699H17.3332C17.8855 1.66699 18.3332 2.11471 18.3332 2.66699V6.50032C18.3332 7.05261 17.8855 7.50033 17.3332 7.50033H2.6665C2.11422 7.50033 1.6665 7.05261 1.6665 6.50033V2.66699ZM4.33317 3.33366C3.78088 3.33366 3.33317 3.78137 3.33317 4.33366V4.83366C3.33317 5.38594 3.78089 5.83366 4.33317 5.83366H15.6665C16.2188 5.83366 16.6665 5.38594 16.6665 4.83366V4.33366C16.6665 3.78137 16.2188 3.33366 15.6665 3.33366H4.33317ZM2.49984 9.16699C2.96007 9.16699 3.33317 9.54009 3.33317 10.0003V15.667C3.33317 16.2193 3.78089 16.667 4.33317 16.667H15.6665C16.2188 16.667 16.6665 16.2193 16.6665 15.667V10.0003C16.6665 9.54009 17.0396 9.16699 17.4998 9.16699C17.9601 9.16699 18.3332 9.54009 18.3332 10.0003V17.3337C18.3332 17.8859 17.8855 18.3337 17.3332 18.3337H2.6665C2.11422 18.3337 1.6665 17.8859 1.6665 17.3337V10.0003C1.6665 9.54009 2.0396 9.16699 2.49984 9.16699ZM4.99984 10.8337C4.99984 10.3734 5.37293 10.0003 5.83317 10.0003H14.1665C14.6267 10.0003 14.9998 10.3734 14.9998 10.8337C14.9998 11.2939 14.6267 11.667 14.1665 11.667H5.83317C5.37293 11.667 4.99984 11.2939 4.99984 10.8337ZM4.99984 14.167C4.99984 13.7068 5.37293 13.3337 5.83317 13.3337H14.1665C14.6267 13.3337 14.9998 13.7068 14.9998 14.167C14.9998 14.6272 14.6267 15.0003 14.1665 15.0003H5.83317C5.37293 15.0003 4.99984 14.6272 4.99984 14.167Z"/>
</svg>
