<svg width="16" height="16" viewBox="0 0 16 16" fill="none" xmlns="http://www.w3.org/2000/svg">
<path d="M5.33333 4H10.6667V5.33333H5.33333V4ZM2.66667 6.66667V5.33333H5.33333V6.66667H2.66667ZM1.33333 8V6.66667H2.66667V8H1.33333ZM1.33333 9.33333V8H0V9.33333H1.33333ZM2.66667 10.6667H1.33333V9.33333H2.66667V10.6667ZM5.33333 12H2.66667V10.6667H5.33333V12ZM10.6667 12V13.3333H5.33333V12H10.6667ZM13.3333 10.6667V12H10.6667V10.6667H13.3333ZM14.6667 9.33333V10.6667H13.3333V9.33333H14.6667ZM14.6667 8H16V9.33333H14.6667V8ZM13.3333 6.66667H14.6667V8H13.3333V6.66667ZM13.3333 6.66667V5.33333H10.6667V6.66667H13.3333ZM6.66667 7.33333H9.33333V10H6.66667V7.33333Z" fill="black"/>
</svg>
