<svg width="16" height="16" viewBox="0 0 16 16" fill="none" xmlns="http://www.w3.org/2000/svg">
<path d="M0 4.66675H1.33333V6.00008H0V4.66675ZM2.66667 7.33341H1.33333V6.00008H2.66667V7.33341ZM5.33333 8.66675V7.33341H2.66667V8.66675H1.33333V10.0001H2.66667V8.66675H5.33333ZM10.6667 8.66675H5.33333V10.0001H4V11.3334H5.33333V10.0001H10.6667V11.3334H12V10.0001H10.6667V8.66675ZM13.3333 7.33341H10.6667V8.66675H13.3333V10.0001H14.6667V8.66675H13.3333V7.33341ZM14.6667 6.00008V7.33341H13.3333V6.00008H14.6667ZM14.6667 6.00008V4.66675H16V6.00008H14.6667Z" fill="black"/>
</svg>
