<svg xmlns="http://www.w3.org/2000/svg" width="16" height="16" viewBox="0 0 16 16" fill="none">
  <path d="M2.99999 4C2.99999 3.86739 3.05266 3.74021 3.14643 3.64645C3.2402 3.55268 3.36738 3.5 3.49999 3.5H4.49999V2.5C4.49999 2.36739 4.55266 2.24021 4.64643 2.14645C4.7402 2.05268 4.86738 2 4.99999 2C5.13259 2 5.25977 2.05268 5.35354 2.14645C5.44731 2.24021 5.49999 2.36739 5.49999 2.5V3.5H6.49999C6.63259 3.5 6.75977 3.55268 6.85354 3.64645C6.94731 3.74021 6.99999 3.86739 6.99999 4C6.99999 4.13261 6.94731 4.25979 6.85354 4.35355C6.75977 4.44732 6.63259 4.5 6.49999 4.5H5.49999V5.5C5.49999 5.63261 5.44731 5.75979 5.35354 5.85355C5.25977 5.94732 5.13259 6 4.99999 6C4.86738 6 4.7402 5.94732 4.64643 5.85355C4.55266 5.75979 4.49999 5.63261 4.49999 5.5V4.5H3.49999C3.36738 4.5 3.2402 4.44732 3.14643 4.35355C3.05266 4.25979 2.99999 4.13261 2.99999 4ZM11.5 12H11V11.5C11 11.3674 10.9473 11.2402 10.8535 11.1464C10.7598 11.0527 10.6326 11 10.5 11C10.3674 11 10.2402 11.0527 10.1464 11.1464C10.0527 11.2402 9.99999 11.3674 9.99999 11.5V12H9.49999C9.36738 12 9.2402 12.0527 9.14643 12.1464C9.05266 12.2402 8.99999 12.3674 8.99999 12.5C8.99999 12.6326 9.05266 12.7598 9.14643 12.8536C9.2402 12.9473 9.36738 13 9.49999 13H9.99999V13.5C9.99999 13.6326 10.0527 13.7598 10.1464 13.8536C10.2402 13.9473 10.3674 14 10.5 14C10.6326 14 10.7598 13.9473 10.8535 13.8536C10.9473 13.7598 11 13.6326 11 13.5V13H11.5C11.6326 13 11.7598 12.9473 11.8535 12.8536C11.9473 12.7598 12 12.6326 12 12.5C12 12.3674 11.9473 12.2402 11.8535 12.1464C11.7598 12.0527 11.6326 12 11.5 12ZM15 9H14V8C14 7.86739 13.9473 7.74021 13.8535 7.64645C13.7598 7.55268 13.6326 7.5 13.5 7.5C13.3674 7.5 13.2402 7.55268 13.1464 7.64645C13.0527 7.74021 13 7.86739 13 8V9H12C11.8674 9 11.7402 9.05268 11.6464 9.14645C11.5527 9.24021 11.5 9.36739 11.5 9.5C11.5 9.63261 11.5527 9.75979 11.6464 9.85355C11.7402 9.94732 11.8674 10 12 10H13V11C13 11.1326 13.0527 11.2598 13.1464 11.3536C13.2402 11.4473 13.3674 11.5 13.5 11.5C13.6326 11.5 13.7598 11.4473 13.8535 11.3536C13.9473 11.2598 14 11.1326 14 11V10H15C15.1326 10 15.2598 9.94732 15.3535 9.85355C15.4473 9.75979 15.5 9.63261 15.5 9.5C15.5 9.36739 15.4473 9.24021 15.3535 9.14645C15.2598 9.05268 15.1326 9 15 9ZM13.7069 5L4.99999 13.7069C4.81247 13.8943 4.55821 13.9995 4.29311 13.9995C4.02801 13.9995 3.77375 13.8943 3.58624 13.7069L2.29249 12.4144C2.1996 12.3215 2.12592 12.2113 2.07565 12.0899C2.02539 11.9686 1.99951 11.8385 1.99951 11.7072C1.99951 11.5758 2.02539 11.4458 2.07565 11.3245C2.12592 11.2031 2.1996 11.0929 2.29249 11L11 2.29312C11.0928 2.20024 11.2031 2.12656 11.3244 2.07629C11.4458 2.02602 11.5758 2.00015 11.7072 2.00015C11.8385 2.00015 11.9686 2.02602 12.0899 2.07629C12.2113 2.12656 12.3215 2.20024 12.4144 2.29312L13.7069 3.58562C13.7997 3.67849 13.8734 3.78874 13.9237 3.91008C13.974 4.03142 13.9998 4.16147 13.9998 4.29281C13.9998 4.42415 13.974 4.55421 13.9237 4.67555C13.8734 4.79689 13.7997 4.90714 13.7069 5ZM10.2925 7L8.99999 5.70687L2.99999 11.7069L4.29249 13L10.2925 7ZM13 4.29313L11.7069 3L9.70686 5L11 6.29313L13 4.29313Z" fill="black"/>
</svg>