<svg width="20" height="20" viewBox="0 0 20 20" fill="none" stroke="black" xmlns="http://www.w3.org/2000/svg">
<path d="M16.5625 5.22498C16.8489 5.38787 17.0867 5.62413 17.2515 5.90945C17.4163 6.19477 17.5021 6.51884 17.5 6.84832V12.9183C17.5 13.5925 17.1308 14.2142 16.535 14.5417L10.91 18.1C10.6311 18.2531 10.3181 18.3334 10 18.3334C9.68186 18.3334 9.36887 18.2531 9.09 18.1L3.465 14.5417C3.17347 14.3823 2.9301 14.1476 2.76034 13.862C2.59058 13.5765 2.50067 13.2505 2.5 12.9183V6.84748C2.5 6.17332 2.86917 5.55248 3.465 5.22498L9.09 1.90832C9.37711 1.75001 9.69964 1.66699 10.0275 1.66699C10.3554 1.66699 10.6779 1.75001 10.965 1.90832L16.59 5.22498H16.5625Z" stroke-width="2" stroke-linecap="round" stroke-linejoin="round"/>
</svg>
