<svg width="94" height="68" viewBox="0 0 94 68" fill="none" xmlns="http://www.w3.org/2000/svg">
<path d="M0.616563 34.19C0.616563 26.21 0.616563 18.23 0.546563 10.32C0.546563 7.94 0.756563 5.63 0.826563 3.25C0.896563 1.36 1.17656 1.08 3.06656 1.01C7.47656 0.869996 11.8866 0.729997 16.3666 0.659998C21.8966 0.519996 27.4966 0.449997 33.0266 0.379998C33.6566 0.309999 34.2166 0.309999 34.7766 0.379998C35.8966 0.519996 36.2466 0.869996 36.3866 2.13C36.6666 3.88 36.6666 3.88 38.4166 4.09C39.2566 4.23 40.0966 4.37 40.8666 4.44C41.9166 4.51 42.3366 5 42.4066 5.98C42.4066 6.33 42.4066 6.61 42.4066 6.96C42.3366 14.8 42.1966 22.64 42.0566 30.48C42.0566 31.6 42.0566 32.72 40.5166 32.86C40.0966 32.86 39.8166 33.21 39.9566 33.63C40.3766 35.03 39.3966 35.45 38.4866 35.87C35.4066 37.34 32.3266 38.88 29.1766 40.28C25.6766 41.89 26.5166 41.61 28.2666 44.06C31.7666 48.96 35.3366 53.79 38.9066 58.69C40.0266 60.23 40.0266 60.58 38.4166 61.77C36.1066 63.45 33.6566 65.13 31.2766 66.74C29.5966 67.79 29.3166 67.72 28.1966 66.11C24.1366 60.37 20.0766 54.63 16.0166 48.89C15.5966 48.33 15.3866 47.21 14.4766 47.49C13.5666 47.77 13.9166 48.82 13.9166 49.52C13.8466 53.58 13.8466 57.64 13.8466 61.63C13.8466 64.22 13.4266 64.57 10.8366 64.64C8.03656 64.78 5.30656 64.36 2.50656 64.29C1.03656 64.29 0.546563 63.87 0.546563 62.33C0.476562 59.81 0.546563 57.29 0.546563 54.77C0.546563 47.91 0.546563 41.05 0.546563 34.19C0.546563 34.19 0.546563 34.19 0.616563 34.19ZM13.9166 23.62C13.9166 26.63 13.9166 29.57 13.9166 32.58C13.9166 33.77 14.1266 33.91 15.2466 33.35C19.3766 31.39 23.5766 29.36 27.7066 27.4C28.6166 26.91 28.9666 26.28 28.9666 25.3C28.9666 21.87 29.0366 18.51 29.0366 15.08C29.0366 13.54 28.8266 13.33 27.2166 13.33C23.3666 13.33 19.5166 13.33 15.6666 13.33C14.0566 13.33 13.9866 13.54 13.9166 15.15C13.9166 17.95 13.9166 20.82 13.9166 23.62Z" fill="#FF7C60"/>
<path d="M51.64 34.19C51.64 26.21 51.64 18.23 51.57 10.32C51.57 7.94 51.78 5.63 51.85 3.25C51.92 1.36 52.2 1.08 54.09 1.01C58.5 0.869996 62.91 0.729997 67.39 0.659998C72.92 0.519996 78.52 0.449997 84.05 0.379998C84.68 0.309999 85.24 0.309999 85.8 0.379998C86.92 0.519996 87.27 0.869996 87.41 2.13C87.69 3.88 87.69 3.88 89.44 4.09C90.28 4.23 91.12 4.37 91.89 4.44C92.94 4.51 93.36 5 93.43 5.98C93.43 6.33 93.43 6.61 93.43 6.96C93.36 14.8 93.22 22.64 93.08 30.48C93.08 31.6 93.08 32.72 91.54 32.86C91.12 32.86 90.84 33.21 90.98 33.63C91.4 35.03 90.42 35.45 89.51 35.87C86.43 37.34 83.35 38.88 80.2 40.28C76.7 41.89 77.54 41.61 79.29 44.06C82.79 48.96 86.36 53.79 89.93 58.69C91.05 60.23 91.05 60.58 89.44 61.77C87.13 63.45 84.68 65.13 82.3 66.74C80.62 67.79 80.34 67.72 79.22 66.11C75.16 60.37 71.1 54.63 67.04 48.89C66.62 48.33 66.41 47.21 65.5 47.49C64.59 47.77 64.94 48.82 64.94 49.52C64.87 53.58 64.87 57.64 64.87 61.63C64.87 64.22 64.45 64.57 61.86 64.64C59.06 64.78 56.33 64.36 53.53 64.29C52.06 64.29 51.57 63.87 51.57 62.33C51.5 59.81 51.57 57.29 51.57 54.77C51.57 47.91 51.57 41.05 51.57 34.19C51.57 34.19 51.57 34.19 51.64 34.19ZM64.94 23.62C64.94 26.63 64.94 29.57 64.94 32.58C64.94 33.77 65.15 33.91 66.27 33.35C70.4 31.39 74.6 29.36 78.73 27.4C79.64 26.91 79.99 26.28 79.99 25.3C79.99 21.87 80.06 18.51 80.06 15.08C80.06 13.54 79.85 13.33 78.24 13.33C74.39 13.33 70.54 13.33 66.69 13.33C65.08 13.33 65.01 13.54 64.94 15.15C64.94 17.95 64.94 20.82 64.94 23.62Z" fill="#FFE664"/>
</svg>