<svg width="188" height="139" viewBox="0 0 188 139" fill="none" xmlns="http://www.w3.org/2000/svg">
<path d="M0.207422 38.85C0.207422 33.15 0.207422 27.45 0.157422 21.8C0.157422 20.1 0.307422 18.45 0.357422 16.75C0.407422 15.4 0.607422 15.2 1.95742 15.15C5.10742 15.05 8.25742 14.95 11.4574 14.9C15.4074 14.8 19.4074 14.75 23.3574 14.7C23.8074 14.65 24.2074 14.65 24.6074 14.7C25.4074 14.8 25.6574 15.05 25.7574 15.95C25.9574 17.2 25.9574 17.2 27.2074 17.35C27.8074 17.45 28.4074 17.55 28.9574 17.6C29.7074 17.65 30.0074 18 30.0574 18.7C30.0574 18.95 30.0574 19.15 30.0574 19.4C30.0074 25 29.9074 30.6 29.8074 36.2C29.8074 37 29.8074 37.8 28.7074 37.9C28.4074 37.9 28.2074 38.15 28.3074 38.45C28.6074 39.45 27.9074 39.75 27.2574 40.05C25.0574 41.1 22.8574 42.2 20.6074 43.2C18.1074 44.35 18.7074 44.15 19.9574 45.9C22.4574 49.4 25.0074 52.85 27.5574 56.35C28.3574 57.45 28.3574 57.7 27.2074 58.55C25.5574 59.75 23.8074 60.95 22.1074 62.1C20.9074 62.85 20.7074 62.8 19.9074 61.65C17.0074 57.55 14.1074 53.45 11.2074 49.35C10.9074 48.95 10.7574 48.15 10.1074 48.35C9.45742 48.55 9.70742 49.3 9.70742 49.8C9.65742 52.7 9.65742 55.6 9.65742 58.45C9.65742 60.3 9.35742 60.55 7.50742 60.6C5.50742 60.7 3.55742 60.4 1.55742 60.35C0.507422 60.35 0.157422 60.05 0.157422 58.95C0.107422 57.15 0.157422 55.35 0.157422 53.55C0.157422 48.65 0.157422 43.75 0.157422 38.85C0.157422 38.85 0.157422 38.85 0.207422 38.85ZM9.70742 31.3C9.70742 33.45 9.70742 35.55 9.70742 37.7C9.70742 38.55 9.85742 38.65 10.6574 38.25C13.6074 36.85 16.6074 35.4 19.5574 34C20.2074 33.65 20.4574 33.2 20.4574 32.5C20.4574 30.05 20.5074 27.65 20.5074 25.2C20.5074 24.1 20.3574 23.95 19.2074 23.95C16.4574 23.95 13.7074 23.95 10.9574 23.95C9.80742 23.95 9.75742 24.1 9.70742 25.25C9.70742 27.25 9.70742 29.3 9.70742 31.3ZM30.5027 24.1C30.5027 22.15 30.5027 20.2 30.5027 18.25C30.5027 16.85 30.6527 16.8 32.0027 16.6C34.1527 16.3 36.3027 16.2 38.4027 16.45C40.3527 16.7 42.2527 16.7 44.2027 16.6C48.4527 16.45 52.6527 16.2 56.9027 16C57.2027 15.95 57.4527 15.95 57.7527 15.95C59.0027 16.1 59.3027 16.35 59.3527 17.65C59.4027 19.55 59.4027 21.45 59.4027 23.35C59.4027 24.6 59.2027 24.8 58.0527 24.9C57.2527 25 56.5027 25.05 55.7527 25.1C52.3027 25.25 48.8527 25.35 45.4527 25.5C44.0027 25.55 42.5527 25.6 41.1027 25.7C40.2527 25.8 40.1027 25.9 40.1027 26.8C40.1027 29.35 40.1527 31.85 40.2027 34.4C40.2527 35.4 40.3027 36.4 40.3527 37.4C40.4027 38.2 40.5527 38.3 41.3527 38.2C44.1527 37.75 46.9027 37.3 49.7027 36.9C49.8527 36.85 50.0527 36.8 50.2027 36.8C51.5027 36.65 51.7527 36.85 51.9527 38.05C52.3027 39.9 52.6027 41.7 52.8527 43.55C53.0527 45.15 52.9527 45.25 51.4527 45.55C48.8527 46.05 46.2527 46.45 43.7027 46.9C42.9527 47 42.2527 47.1 41.5527 47.25C40.9527 47.3 40.6527 47.65 40.6527 48.25C40.6527 49.65 40.6527 51.05 40.7027 52.45C40.7027 53.1 41.1027 53.25 41.7027 53.2C45.3027 52.85 48.9027 52.55 52.5027 52.3C54.7527 52.1 57.0027 52 59.2527 51.9C60.5527 51.85 60.6527 51.95 60.8027 53.2C61.1027 55.25 61.2527 57.25 61.2527 59.3C61.2527 60.2 61.1527 60.4 60.2027 60.55C59.2027 60.75 58.2027 60.8 57.2027 60.9C54.5027 61.15 51.7527 61.35 49.0027 61.55C44.8527 61.9 40.7027 62.2 36.5527 62.55C36.2027 62.55 35.8027 62.6 35.4527 62.6C34.9027 62.65 34.4027 62.5 34.2027 61.85C34.1027 61.2 33.6027 61.05 33.0027 61C31.9527 60.9 31.6027 60.55 31.4527 59.5C31.4027 59.15 31.4027 58.85 31.3527 58.55C31.2527 53.6 31.1527 48.7 31.0527 43.75C30.8527 37.2 30.6527 30.65 30.4527 24.1C30.5027 24.1 30.5027 24.1 30.5027 24.1ZM77.4633 43.4C77.8133 43.1 77.8133 42.75 77.9133 42.45C79.7133 34.95 81.5133 27.45 83.3133 19.9C83.3633 19.75 83.4133 19.55 83.4633 19.4C83.7633 18.5 83.9133 18.35 84.8133 18.55C86.5133 18.85 88.1633 19.3 89.8133 19.75C90.5133 19.95 91.2133 20.15 91.9133 20.35C92.7633 20.65 92.8133 20.8 92.6633 21.65C92.5133 22.35 92.3633 23 92.1633 23.65C89.2133 35.95 86.2133 48.25 83.2633 60.55C83.2133 60.7 83.1633 60.8 83.1633 60.95C82.7633 62.4 82.5633 62.55 81.0633 62.25C80.9133 62.2 80.7633 62.15 80.6633 62.15C78.9633 61.55 77.3133 61.55 75.6633 62.3C75.5633 62.35 75.4633 62.35 75.4133 62.4C73.9133 62.8 73.7633 62.75 73.3133 61.35C70.2133 51.9 67.1633 42.4 64.0633 32.95C62.9133 29.4 61.7633 25.8 60.6133 22.25C60.1633 20.8 60.2133 20.65 61.6133 20.15C63.5633 19.5 65.5633 18.9 67.5633 18.25C69.0133 17.8 69.1133 17.85 69.6133 19.3C70.9633 23.5 72.3133 27.75 73.7133 31.95C74.8133 35.3 75.8633 38.65 76.9633 42C77.1133 42.45 77.3133 42.9 77.4633 43.4ZM98.5441 15.05C101.194 15.15 103.994 15.2 106.794 15.3C107.994 15.35 108.194 15.6 108.244 16.8C108.344 18.85 108.244 20.95 108.044 23C107.944 23.9 107.744 24.1 106.844 24.15C104.744 24.3 104.794 24.3 104.744 26.35C104.744 32.55 104.744 38.75 104.694 44.95C104.644 47.2 104.544 49.45 104.494 51.75C104.494 52.1 104.544 52.45 104.494 52.8C104.494 53.5 104.794 53.75 105.494 53.85C106.944 53.95 106.944 54 106.944 55.45C106.944 57.2 106.944 58.95 106.894 60.7C106.844 62.45 106.644 62.65 104.994 62.6C101.594 62.55 98.1941 62.45 94.8441 62.35C93.5441 62.3 93.3441 62.1 93.2941 60.85C93.2441 58.8 93.3441 56.75 93.5441 54.75C93.5441 54.2 93.6441 53.7 94.2941 53.6C95.1441 53.5 95.1441 52.95 95.1441 52.35C95.1441 49.55 95.1941 46.8 95.1941 44.05C95.1941 37.65 95.4441 31.2 95.5941 24.8C95.5941 24.05 95.3441 23.9 94.6941 23.8C93.3941 23.65 93.2941 23.55 93.3441 22.25C93.3441 20.3 93.1941 18.3 93.4941 16.3C93.6941 15.25 93.7941 15.1 94.8941 15.1C96.0441 15.05 97.2441 15.05 98.5441 15.05ZM108.795 24.1C108.795 22.15 108.795 20.2 108.795 18.25C108.795 16.85 108.945 16.8 110.295 16.6C112.445 16.3 114.595 16.2 116.695 16.45C118.645 16.7 120.545 16.7 122.495 16.6C126.745 16.45 130.945 16.2 135.195 16C135.495 15.95 135.745 15.95 136.045 15.95C137.295 16.1 137.595 16.35 137.645 17.65C137.695 19.55 137.695 21.45 137.695 23.35C137.695 24.6 137.495 24.8 136.345 24.9C135.545 25 134.795 25.05 134.045 25.1C130.595 25.25 127.145 25.35 123.745 25.5C122.295 25.55 120.845 25.6 119.395 25.7C118.545 25.8 118.395 25.9 118.395 26.8C118.395 29.35 118.445 31.85 118.495 34.4C118.545 35.4 118.595 36.4 118.645 37.4C118.695 38.2 118.845 38.3 119.645 38.2C122.445 37.75 125.195 37.3 127.995 36.9C128.145 36.85 128.345 36.8 128.495 36.8C129.795 36.65 130.045 36.85 130.245 38.05C130.595 39.9 130.895 41.7 131.145 43.55C131.345 45.15 131.245 45.25 129.745 45.55C127.145 46.05 124.545 46.45 121.995 46.9C121.245 47 120.545 47.1 119.845 47.25C119.245 47.3 118.945 47.65 118.945 48.25C118.945 49.65 118.945 51.05 118.995 52.45C118.995 53.1 119.395 53.25 119.995 53.2C123.595 52.85 127.195 52.55 130.795 52.3C133.045 52.1 135.295 52 137.545 51.9C138.845 51.85 138.945 51.95 139.095 53.2C139.395 55.25 139.545 57.25 139.545 59.3C139.545 60.2 139.445 60.4 138.495 60.55C137.495 60.75 136.495 60.8 135.495 60.9C132.795 61.15 130.045 61.35 127.295 61.55C123.145 61.9 118.995 62.2 114.845 62.55C114.495 62.55 114.095 62.6 113.745 62.6C113.195 62.65 112.695 62.5 112.495 61.85C112.395 61.2 111.895 61.05 111.295 61C110.245 60.9 109.895 60.55 109.745 59.5C109.695 59.15 109.695 58.85 109.645 58.55C109.545 53.6 109.445 48.7 109.345 43.75C109.145 37.2 108.945 30.65 108.745 24.1C108.795 24.1 108.795 24.1 108.795 24.1ZM156.319 41C156.619 39.95 156.919 38.85 157.169 37.75C158.169 34.1 159.119 30.45 160.069 26.75C160.169 26.5 160.219 26.25 160.319 25.95C160.469 25.4 160.769 25.15 161.419 25.3C162.119 25.5 162.819 25.6 163.519 25.8C164.569 26.1 165.619 26.15 166.719 25.9C167.169 25.75 167.669 25.7 168.169 25.6C169.519 25.35 169.669 25.45 169.919 26.7C170.369 28.5 170.719 30.25 171.119 32C171.569 34 172.019 35.95 172.519 38.2C172.969 37.35 172.969 36.6 173.119 35.95C174.019 31.3 174.919 26.6 175.819 21.95C175.869 21.75 175.869 21.5 175.919 21.3C176.019 20.65 176.369 20.4 177.069 20.45C178.119 20.55 179.219 20.75 180.269 21C181.519 21.25 182.819 21.5 184.119 21.8C185.319 22.05 185.369 22.2 185.169 23.35C184.819 25.2 184.469 27.1 184.069 28.95C182.019 39.6 179.969 50.25 177.919 60.9C177.869 61.15 177.819 61.45 177.719 61.7C177.469 62.6 177.419 62.6 176.519 62.5C176.319 62.5 176.169 62.5 175.969 62.45C173.869 61.85 171.819 62.05 169.719 62.5C168.469 62.75 168.319 62.65 168.069 61.4C167.269 58.1 166.569 54.8 165.819 51.5C165.469 49.95 165.119 48.4 164.569 46.85C164.019 48.85 163.519 50.85 162.969 52.85C162.419 54.9 161.919 56.95 161.369 59C161.019 60.25 160.919 60.3 159.669 60.05C159.619 60 159.569 60 159.519 60C157.469 59.2 155.469 59.3 153.469 60.05C152.169 60.5 151.969 60.3 151.619 59.05C148.919 50.2 146.219 41.3 143.569 32.45C142.519 29 141.519 25.6 140.469 22.2C140.369 21.9 140.269 21.6 140.169 21.25C139.969 20.3 140.019 20.05 140.969 19.75C143.169 19.1 145.419 18.45 147.619 17.85C148.769 17.55 148.919 17.65 149.269 18.8C150.419 22.5 151.519 26.15 152.619 29.85C153.669 33.2 154.669 36.6 155.669 39.95C155.769 40.3 155.919 40.65 156.019 41C156.119 41 156.219 41 156.319 41Z" fill="#FF0000"/>
<path d="M0.512109 102.85C0.512109 97.15 0.512109 91.45 0.462109 85.8C0.462109 84.1 0.612109 82.45 0.662109 80.75C0.712109 79.4 0.912109 79.2 2.26211 79.15C5.41211 79.05 8.56211 78.95 11.7621 78.9C15.7121 78.8 19.7121 78.75 23.6621 78.7C24.1121 78.65 24.5121 78.65 24.9121 78.7C25.7121 78.8 25.9621 79.05 26.0621 79.95C26.2621 81.2 26.2621 81.2 27.5121 81.35C28.1121 81.45 28.7121 81.55 29.2621 81.6C30.0121 81.65 30.3121 82 30.3621 82.7C30.3621 82.95 30.3621 83.15 30.3621 83.4C30.3121 89 30.2121 94.6 30.1121 100.2C30.1121 101 30.1121 101.8 29.0121 101.9C28.7121 101.9 28.5121 102.15 28.6121 102.45C28.9121 103.45 28.2121 103.75 27.5621 104.05C25.3621 105.1 23.1621 106.2 20.9121 107.2C18.4121 108.35 19.0121 108.15 20.2621 109.9C22.7621 113.4 25.3121 116.85 27.8621 120.35C28.6621 121.45 28.6621 121.7 27.5121 122.55C25.8621 123.75 24.1121 124.95 22.4121 126.1C21.2121 126.85 21.0121 126.8 20.2121 125.65C17.3121 121.55 14.4121 117.45 11.5121 113.35C11.2121 112.95 11.0621 112.15 10.4121 112.35C9.76211 112.55 10.0121 113.3 10.0121 113.8C9.96211 116.7 9.96211 119.6 9.96211 122.45C9.96211 124.3 9.66211 124.55 7.81211 124.6C5.81211 124.7 3.86211 124.4 1.86211 124.35C0.812109 124.35 0.462109 124.05 0.462109 122.95C0.412109 121.15 0.462109 119.35 0.462109 117.55C0.462109 112.65 0.462109 107.75 0.462109 102.85C0.462109 102.85 0.462109 102.85 0.512109 102.85ZM10.0121 95.3C10.0121 97.45 10.0121 99.55 10.0121 101.7C10.0121 102.55 10.1621 102.65 10.9621 102.25C13.9121 100.85 16.9121 99.4 19.8621 98C20.5121 97.65 20.7621 97.2 20.7621 96.5C20.7621 94.05 20.8121 91.65 20.8121 89.2C20.8121 88.1 20.6621 87.95 19.5121 87.95C16.7621 87.95 14.0121 87.95 11.2621 87.95C10.1121 87.95 10.0621 88.1 10.0121 89.25C10.0121 91.25 10.0121 93.3 10.0121 95.3ZM45.5574 114.1C44.2574 114.1 42.9574 114.1 41.6574 114.1C40.5074 114.1 40.4074 114.2 40.3574 115.35C40.3574 117.45 40.3074 119.5 40.3074 121.6C40.3074 122.1 40.3074 122.6 40.2574 123.1C40.1574 124.15 39.9074 124.4 38.8074 124.45C36.7074 124.45 34.6574 124.45 32.5574 124.4C30.9574 124.4 30.7574 124.15 30.7574 122.55C30.8574 118.75 30.9574 115 31.0074 111.2C31.0574 108.5 31.0074 105.85 31.1074 103.2C31.2574 98.6 31.2574 94.05 31.3574 89.5C31.4074 88.15 31.5074 86.85 31.5574 85.55C31.6574 84.35 31.9074 84.1 33.2074 84.05C33.4574 84.05 33.7574 84.05 34.0074 84.05C34.5574 84.05 34.8574 83.8 34.8574 83.25C34.9074 82.65 34.9074 82.05 34.9574 81.5C35.0574 80.8 35.4074 80.4 36.1074 80.35C36.3574 80.35 36.6574 80.3 36.9074 80.3C41.3074 80.15 45.7074 80 50.0574 80C51.8574 80 53.6074 79.9 55.3574 79.85C55.7074 79.85 56.1074 79.8 56.4574 79.85C57.4074 79.95 57.6574 80.25 57.7574 81.25C57.7574 81.45 57.7574 81.7 57.7574 81.9C57.8074 83.15 57.8074 83.15 59.0574 83.25C60.3074 83.35 60.4074 83.5 60.5074 84.85C60.7574 88.6 60.5074 92.35 60.4574 96.1C60.4574 100.8 60.5074 105.55 60.3574 110.25C60.2074 115.05 60.2574 119.9 60.1574 124.75C60.1074 126.4 59.9574 126.6 58.2574 126.6C56.3574 126.6 54.4574 126.6 52.5574 126.55C50.9574 126.5 50.6074 126.15 50.6574 124.6C50.6574 121.85 50.7574 119.1 50.8074 116.35C50.8074 115.95 50.8074 115.6 50.8074 115.25C50.7574 114.2 50.6574 114.05 49.6574 114.05C48.3074 114 46.9074 114.05 45.5574 114.05V114.1ZM40.6074 99.5C40.6074 100.95 40.6074 102.4 40.6074 103.85C40.6074 105.15 40.7074 105.25 42.0074 105.25C44.5574 105.2 47.1574 105.15 49.7074 105.05C50.7074 105.05 50.8574 104.85 50.9074 103.8C50.9574 99.45 51.0574 95.05 51.1074 90.65C51.1074 89.5 50.9574 89.35 49.8074 89.35C47.2574 89.3 44.7074 89.35 42.2074 89.4C41.0074 89.4 40.8574 89.5 40.8574 90.7C40.9074 93.65 40.5574 96.6 40.6074 99.5ZM83.7016 117.15C82.2516 117.35 82.2016 117.35 81.5016 116.15C78.3516 110.75 75.2016 105.35 72.1016 99.95C71.8016 99.5 71.5516 99.05 71.1516 98.4C70.9516 98.9 71.0016 99.3 71.0016 99.7C70.9516 103.35 71.0016 107 70.9016 110.65C70.7516 115.1 70.7016 119.55 70.6516 123.95C70.6516 125.5 70.3516 125.8 68.8516 125.8C66.9016 125.8 64.9516 125.95 63.0016 125.7C61.2516 125.5 61.1516 125.35 61.1516 123.6C61.2016 121.5 61.3016 119.45 61.3516 117.35C61.4016 113.25 61.3016 109.1 61.4516 105C61.7016 99.2 61.6016 93.35 61.7016 87.5C61.7516 86.15 61.8016 84.8 61.9016 83.45C62.0016 82.5 62.2516 82.15 63.2016 82.25C65.0016 82.45 66.4516 81.8 67.8516 80.75C68.3516 80.35 69.0016 80.05 69.6016 79.75C70.4516 79.3 70.7516 79.4 71.3016 80.15C71.8016 80.85 72.2516 81.6 72.7016 82.35C76.2516 88.4 79.7516 94.45 83.3016 100.5C83.5016 100.8 83.6016 101.25 84.0016 101.4C84.2016 101.25 84.2016 101.05 84.2016 100.9C84.3016 98.05 84.4016 95.2 84.4516 92.35C84.5016 88.8 84.7016 85.25 85.0016 81.65C85.0516 80.5 85.2016 80.35 86.4016 80.35C88.4016 80.35 90.4516 80.35 92.5016 80.4C93.6516 80.4 93.9016 80.65 93.9516 81.85C94.0016 82.15 94.0016 82.45 94.0016 82.8C94.1516 89.4 93.8016 96 93.6516 102.6C93.6016 105.6 93.6016 108.65 93.4516 111.65C93.2516 115.7 93.2516 119.7 93.1516 123.7C93.1516 124.15 93.1016 124.65 93.0516 125.05C92.9016 126.35 92.6516 126.65 91.3016 126.6C89.2016 126.45 87.0516 126.45 84.9516 126.3C83.9516 126.25 83.6016 125.9 83.6516 124.8C83.6516 122.55 83.5516 120.3 83.8016 118.05C83.8516 117.8 83.9016 117.5 83.7016 117.15ZM104.273 102.6C104.273 107.05 104.273 111.55 104.273 116C104.273 117.45 104.373 117.5 105.823 117.5C108.223 117.5 110.623 117.4 113.023 117.25C114.023 117.15 114.123 117.1 114.173 116C114.173 114.05 114.223 112.1 114.223 110.15C114.223 109.05 114.073 108.9 112.973 108.9C111.723 108.85 110.423 108.9 109.173 108.9C108.123 108.9 107.823 108.7 107.773 107.65C107.673 105.45 107.673 103.25 107.673 101C107.673 100.4 108.023 100.15 108.623 100.1C109.173 100.05 109.673 99.95 110.223 99.9C112.773 99.8 115.273 99.7 117.823 99.6C119.373 99.55 119.423 99.6 119.923 101.05C120.073 101.5 120.373 101.7 120.773 101.75C121.323 101.85 121.873 101.95 122.423 102C123.373 102.05 123.573 102.25 123.673 103.2C123.723 103.45 123.723 103.65 123.723 103.9C123.723 107.4 123.823 110.95 123.623 114.45C123.473 116.9 123.523 119.35 123.473 121.8C123.473 123.35 123.373 123.5 121.823 123.6C121.073 123.65 120.823 123.95 120.723 124.65C120.623 125.9 120.473 125.95 119.223 126.05C116.173 126.25 113.073 126.2 110.023 126.35C106.823 126.45 103.673 126.55 100.523 126.6C100.123 126.6 99.723 126.6 99.273 126.6C98.273 126.55 98.173 126.55 97.923 125.5C97.773 124.9 97.473 124.7 96.873 124.7C96.773 124.7 96.723 124.7 96.623 124.7C95.173 124.65 94.923 124.4 94.923 122.9C94.873 120.3 94.873 117.75 94.873 115.15C94.873 106.1 94.573 97 94.723 87.9C94.773 86.05 94.823 84.2 94.923 82.35C94.973 81.3 95.123 81.1 96.173 80.9C96.423 80.85 96.723 80.85 96.973 80.85C97.573 80.85 97.823 80.6 97.923 79.95C98.173 78.65 98.173 78.65 99.473 78.65C106.323 78.65 113.223 78.65 120.073 78.65C121.323 78.65 121.373 78.7 121.573 79.9C121.673 80.6 121.973 80.8 122.623 80.85C123.973 81 123.923 81 124.123 82.35C124.323 83.75 124.273 85.15 124.323 86.55C124.423 87.95 124.523 89.35 124.523 90.75C124.523 92.05 124.223 92.35 122.923 92.4C121.523 92.45 120.123 92.35 118.723 92.6C118.623 92.65 118.473 92.6 118.323 92.6C115.773 92.65 115.523 92.45 115.473 89.95C115.423 87.4 115.423 87.4 112.873 87.4C110.523 87.4 108.173 87.4 105.823 87.4C104.323 87.4 104.223 87.5 104.223 89C104.223 93.55 104.223 98.05 104.223 102.6H104.273ZM124.968 88.1C124.968 86.15 124.968 84.2 124.968 82.25C124.968 80.85 125.118 80.8 126.468 80.6C128.618 80.3 130.768 80.2 132.868 80.45C134.818 80.7 136.718 80.7 138.668 80.6C142.918 80.45 147.118 80.2 151.368 80C151.668 79.95 151.918 79.95 152.218 79.95C153.468 80.1 153.768 80.35 153.818 81.65C153.868 83.55 153.868 85.45 153.868 87.35C153.868 88.6 153.668 88.8 152.518 88.9C151.718 89 150.968 89.05 150.218 89.1C146.768 89.25 143.318 89.35 139.918 89.5C138.468 89.55 137.018 89.6 135.568 89.7C134.718 89.8 134.568 89.9 134.568 90.8C134.568 93.35 134.618 95.85 134.668 98.4C134.718 99.4 134.768 100.4 134.818 101.4C134.868 102.2 135.018 102.3 135.818 102.2C138.618 101.75 141.368 101.3 144.168 100.9C144.318 100.85 144.518 100.8 144.668 100.8C145.968 100.65 146.218 100.85 146.418 102.05C146.768 103.9 147.068 105.7 147.318 107.55C147.518 109.15 147.418 109.25 145.918 109.55C143.318 110.05 140.718 110.45 138.168 110.9C137.418 111 136.718 111.1 136.018 111.25C135.418 111.3 135.118 111.65 135.118 112.25C135.118 113.65 135.118 115.05 135.168 116.45C135.168 117.1 135.568 117.25 136.168 117.2C139.768 116.85 143.368 116.55 146.968 116.3C149.218 116.1 151.468 116 153.718 115.9C155.018 115.85 155.118 115.95 155.268 117.2C155.568 119.25 155.718 121.25 155.718 123.3C155.718 124.2 155.618 124.4 154.668 124.55C153.668 124.75 152.668 124.8 151.668 124.9C148.968 125.15 146.218 125.35 143.468 125.55C139.318 125.9 135.168 126.2 131.018 126.55C130.668 126.55 130.268 126.6 129.918 126.6C129.368 126.65 128.868 126.5 128.668 125.85C128.568 125.2 128.068 125.05 127.468 125C126.418 124.9 126.068 124.55 125.918 123.5C125.868 123.15 125.868 122.85 125.818 122.55C125.718 117.6 125.618 112.7 125.518 107.75C125.318 101.2 125.118 94.65 124.918 88.1C124.968 88.1 124.968 88.1 124.968 88.1ZM156.243 102.85C156.243 97.15 156.243 91.45 156.193 85.8C156.193 84.1 156.343 82.45 156.393 80.75C156.443 79.4 156.643 79.2 157.993 79.15C161.143 79.05 164.293 78.95 167.493 78.9C171.443 78.8 175.443 78.75 179.393 78.7C179.843 78.65 180.243 78.65 180.643 78.7C181.443 78.8 181.693 79.05 181.793 79.95C181.993 81.2 181.993 81.2 183.243 81.35C183.843 81.45 184.443 81.55 184.993 81.6C185.743 81.65 186.043 82 186.093 82.7C186.093 82.95 186.093 83.15 186.093 83.4C186.043 89 185.943 94.6 185.843 100.2C185.843 101 185.843 101.8 184.743 101.9C184.443 101.9 184.243 102.15 184.343 102.45C184.643 103.45 183.943 103.75 183.293 104.05C181.093 105.1 178.893 106.2 176.643 107.2C174.143 108.35 174.743 108.15 175.993 109.9C178.493 113.4 181.043 116.85 183.593 120.35C184.393 121.45 184.393 121.7 183.243 122.55C181.593 123.75 179.843 124.95 178.143 126.1C176.943 126.85 176.743 126.8 175.943 125.65C173.043 121.55 170.143 117.45 167.243 113.35C166.943 112.95 166.793 112.15 166.143 112.35C165.493 112.55 165.743 113.3 165.743 113.8C165.693 116.7 165.693 119.6 165.693 122.45C165.693 124.3 165.393 124.55 163.543 124.6C161.543 124.7 159.593 124.4 157.593 124.35C156.543 124.35 156.193 124.05 156.193 122.95C156.143 121.15 156.193 119.35 156.193 117.55C156.193 112.65 156.193 107.75 156.193 102.85C156.193 102.85 156.193 102.85 156.243 102.85ZM165.743 95.3C165.743 97.45 165.743 99.55 165.743 101.7C165.743 102.55 165.893 102.65 166.693 102.25C169.643 100.85 172.643 99.4 175.593 98C176.243 97.65 176.493 97.2 176.493 96.5C176.493 94.05 176.543 91.65 176.543 89.2C176.543 88.1 176.393 87.95 175.243 87.95C172.493 87.95 169.743 87.95 166.993 87.95C165.843 87.95 165.793 88.1 165.743 89.25C165.743 91.25 165.743 93.3 165.743 95.3Z" fill="#FF9900"/>
</svg>
