<svg width="387" height="75" viewBox="0 0 387 75" fill="none" xmlns="http://www.w3.org/2000/svg">
<path d="M0.207422 38.85C0.207422 33.15 0.207422 27.45 0.157422 21.8C0.157422 20.1 0.307422 18.45 0.357422 16.75C0.407422 15.4 0.607422 15.2 1.95742 15.15C5.10742 15.05 8.25742 14.95 11.4574 14.9C15.4074 14.8 19.4074 14.75 23.3574 14.7C23.8074 14.65 24.2074 14.65 24.6074 14.7C25.4074 14.8 25.6574 15.05 25.7574 15.95C25.9574 17.2 25.9574 17.2 27.2074 17.35C27.8074 17.45 28.4074 17.55 28.9574 17.6C29.7074 17.65 30.0074 18 30.0574 18.7C30.0574 18.95 30.0574 19.15 30.0574 19.4C30.0074 25 29.9074 30.6 29.8074 36.2C29.8074 37 29.8074 37.8 28.7074 37.9C28.4074 37.9 28.2074 38.15 28.3074 38.45C28.6074 39.45 27.9074 39.75 27.2574 40.05C25.0574 41.1 22.8574 42.2 20.6074 43.2C18.1074 44.35 18.7074 44.15 19.9574 45.9C22.4574 49.4 25.0074 52.85 27.5574 56.35C28.3574 57.45 28.3574 57.7 27.2074 58.55C25.5574 59.75 23.8074 60.95 22.1074 62.1C20.9074 62.85 20.7074 62.8 19.9074 61.65C17.0074 57.55 14.1074 53.45 11.2074 49.35C10.9074 48.95 10.7574 48.15 10.1074 48.35C9.45742 48.55 9.70742 49.3 9.70742 49.8C9.65742 52.7 9.65742 55.6 9.65742 58.45C9.65742 60.3 9.35742 60.55 7.50742 60.6C5.50742 60.7 3.55742 60.4 1.55742 60.35C0.507422 60.35 0.157422 60.05 0.157422 58.95C0.107422 57.15 0.157422 55.35 0.157422 53.55C0.157422 48.65 0.157422 43.75 0.157422 38.85C0.157422 38.85 0.157422 38.85 0.207422 38.85ZM9.70742 31.3C9.70742 33.45 9.70742 35.55 9.70742 37.7C9.70742 38.55 9.85742 38.65 10.6574 38.25C13.6074 36.85 16.6074 35.4 19.5574 34C20.2074 33.65 20.4574 33.2 20.4574 32.5C20.4574 30.05 20.5074 27.65 20.5074 25.2C20.5074 24.1 20.3574 23.95 19.2074 23.95C16.4574 23.95 13.7074 23.95 10.9574 23.95C9.80742 23.95 9.75742 24.1 9.70742 25.25C9.70742 27.25 9.70742 29.3 9.70742 31.3ZM30.5027 24.1C30.5027 22.15 30.5027 20.2 30.5027 18.25C30.5027 16.85 30.6527 16.8 32.0027 16.6C34.1527 16.3 36.3027 16.2 38.4027 16.45C40.3527 16.7 42.2527 16.7 44.2027 16.6C48.4527 16.45 52.6527 16.2 56.9027 16C57.2027 15.95 57.4527 15.95 57.7527 15.95C59.0027 16.1 59.3027 16.35 59.3527 17.65C59.4027 19.55 59.4027 21.45 59.4027 23.35C59.4027 24.6 59.2027 24.8 58.0527 24.9C57.2527 25 56.5027 25.05 55.7527 25.1C52.3027 25.25 48.8527 25.35 45.4527 25.5C44.0027 25.55 42.5527 25.6 41.1027 25.7C40.2527 25.8 40.1027 25.9 40.1027 26.8C40.1027 29.35 40.1527 31.85 40.2027 34.4C40.2527 35.4 40.3027 36.4 40.3527 37.4C40.4027 38.2 40.5527 38.3 41.3527 38.2C44.1527 37.75 46.9027 37.3 49.7027 36.9C49.8527 36.85 50.0527 36.8 50.2027 36.8C51.5027 36.65 51.7527 36.85 51.9527 38.05C52.3027 39.9 52.6027 41.7 52.8527 43.55C53.0527 45.15 52.9527 45.25 51.4527 45.55C48.8527 46.05 46.2527 46.45 43.7027 46.9C42.9527 47 42.2527 47.1 41.5527 47.25C40.9527 47.3 40.6527 47.65 40.6527 48.25C40.6527 49.65 40.6527 51.05 40.7027 52.45C40.7027 53.1 41.1027 53.25 41.7027 53.2C45.3027 52.85 48.9027 52.55 52.5027 52.3C54.7527 52.1 57.0027 52 59.2527 51.9C60.5527 51.85 60.6527 51.95 60.8027 53.2C61.1027 55.25 61.2527 57.25 61.2527 59.3C61.2527 60.2 61.1527 60.4 60.2027 60.55C59.2027 60.75 58.2027 60.8 57.2027 60.9C54.5027 61.15 51.7527 61.35 49.0027 61.55C44.8527 61.9 40.7027 62.2 36.5527 62.55C36.2027 62.55 35.8027 62.6 35.4527 62.6C34.9027 62.65 34.4027 62.5 34.2027 61.85C34.1027 61.2 33.6027 61.05 33.0027 61C31.9527 60.9 31.6027 60.55 31.4527 59.5C31.4027 59.15 31.4027 58.85 31.3527 58.55C31.2527 53.6 31.1527 48.7 31.0527 43.75C30.8527 37.2 30.6527 30.65 30.4527 24.1C30.5027 24.1 30.5027 24.1 30.5027 24.1ZM77.4633 43.4C77.8133 43.1 77.8133 42.75 77.9133 42.45C79.7133 34.95 81.5133 27.45 83.3133 19.9C83.3633 19.75 83.4133 19.55 83.4633 19.4C83.7633 18.5 83.9133 18.35 84.8133 18.55C86.5133 18.85 88.1633 19.3 89.8133 19.75C90.5133 19.95 91.2133 20.15 91.9133 20.35C92.7633 20.65 92.8133 20.8 92.6633 21.65C92.5133 22.35 92.3633 23 92.1633 23.65C89.2133 35.95 86.2133 48.25 83.2633 60.55C83.2133 60.7 83.1633 60.8 83.1633 60.95C82.7633 62.4 82.5633 62.55 81.0633 62.25C80.9133 62.2 80.7633 62.15 80.6633 62.15C78.9633 61.55 77.3133 61.55 75.6633 62.3C75.5633 62.35 75.4633 62.35 75.4133 62.4C73.9133 62.8 73.7633 62.75 73.3133 61.35C70.2133 51.9 67.1633 42.4 64.0633 32.95C62.9133 29.4 61.7633 25.8 60.6133 22.25C60.1633 20.8 60.2133 20.65 61.6133 20.15C63.5633 19.5 65.5633 18.9 67.5633 18.25C69.0133 17.8 69.1133 17.85 69.6133 19.3C70.9633 23.5 72.3133 27.75 73.7133 31.95C74.8133 35.3 75.8633 38.65 76.9633 42C77.1133 42.45 77.3133 42.9 77.4633 43.4ZM98.5441 15.05C101.194 15.15 103.994 15.2 106.794 15.3C107.994 15.35 108.194 15.6 108.244 16.8C108.344 18.85 108.244 20.95 108.044 23C107.944 23.9 107.744 24.1 106.844 24.15C104.744 24.3 104.794 24.3 104.744 26.35C104.744 32.55 104.744 38.75 104.694 44.95C104.644 47.2 104.544 49.45 104.494 51.75C104.494 52.1 104.544 52.45 104.494 52.8C104.494 53.5 104.794 53.75 105.494 53.85C106.944 53.95 106.944 54 106.944 55.45C106.944 57.2 106.944 58.95 106.894 60.7C106.844 62.45 106.644 62.65 104.994 62.6C101.594 62.55 98.1941 62.45 94.8441 62.35C93.5441 62.3 93.3441 62.1 93.2941 60.85C93.2441 58.8 93.3441 56.75 93.5441 54.75C93.5441 54.2 93.6441 53.7 94.2941 53.6C95.1441 53.5 95.1441 52.95 95.1441 52.35C95.1441 49.55 95.1941 46.8 95.1941 44.05C95.1941 37.65 95.4441 31.2 95.5941 24.8C95.5941 24.05 95.3441 23.9 94.6941 23.8C93.3941 23.65 93.2941 23.55 93.3441 22.25C93.3441 20.3 93.1941 18.3 93.4941 16.3C93.6941 15.25 93.7941 15.1 94.8941 15.1C96.0441 15.05 97.2441 15.05 98.5441 15.05ZM108.795 24.1C108.795 22.15 108.795 20.2 108.795 18.25C108.795 16.85 108.945 16.8 110.295 16.6C112.445 16.3 114.595 16.2 116.695 16.45C118.645 16.7 120.545 16.7 122.495 16.6C126.745 16.45 130.945 16.2 135.195 16C135.495 15.95 135.745 15.95 136.045 15.95C137.295 16.1 137.595 16.35 137.645 17.65C137.695 19.55 137.695 21.45 137.695 23.35C137.695 24.6 137.495 24.8 136.345 24.9C135.545 25 134.795 25.05 134.045 25.1C130.595 25.25 127.145 25.35 123.745 25.5C122.295 25.55 120.845 25.6 119.395 25.7C118.545 25.8 118.395 25.9 118.395 26.8C118.395 29.35 118.445 31.85 118.495 34.4C118.545 35.4 118.595 36.4 118.645 37.4C118.695 38.2 118.845 38.3 119.645 38.2C122.445 37.75 125.195 37.3 127.995 36.9C128.145 36.85 128.345 36.8 128.495 36.8C129.795 36.65 130.045 36.85 130.245 38.05C130.595 39.9 130.895 41.7 131.145 43.55C131.345 45.15 131.245 45.25 129.745 45.55C127.145 46.05 124.545 46.45 121.995 46.9C121.245 47 120.545 47.1 119.845 47.25C119.245 47.3 118.945 47.65 118.945 48.25C118.945 49.65 118.945 51.05 118.995 52.45C118.995 53.1 119.395 53.25 119.995 53.2C123.595 52.85 127.195 52.55 130.795 52.3C133.045 52.1 135.295 52 137.545 51.9C138.845 51.85 138.945 51.95 139.095 53.2C139.395 55.25 139.545 57.25 139.545 59.3C139.545 60.2 139.445 60.4 138.495 60.55C137.495 60.75 136.495 60.8 135.495 60.9C132.795 61.15 130.045 61.35 127.295 61.55C123.145 61.9 118.995 62.2 114.845 62.55C114.495 62.55 114.095 62.6 113.745 62.6C113.195 62.65 112.695 62.5 112.495 61.85C112.395 61.2 111.895 61.05 111.295 61C110.245 60.9 109.895 60.55 109.745 59.5C109.695 59.15 109.695 58.85 109.645 58.55C109.545 53.6 109.445 48.7 109.345 43.75C109.145 37.2 108.945 30.65 108.745 24.1C108.795 24.1 108.795 24.1 108.795 24.1ZM156.319 41C156.619 39.95 156.919 38.85 157.169 37.75C158.169 34.1 159.119 30.45 160.069 26.75C160.169 26.5 160.219 26.25 160.319 25.95C160.469 25.4 160.769 25.15 161.419 25.3C162.119 25.5 162.819 25.6 163.519 25.8C164.569 26.1 165.619 26.15 166.719 25.9C167.169 25.75 167.669 25.7 168.169 25.6C169.519 25.35 169.669 25.45 169.919 26.7C170.369 28.5 170.719 30.25 171.119 32C171.569 34 172.019 35.95 172.519 38.2C172.969 37.35 172.969 36.6 173.119 35.95C174.019 31.3 174.919 26.6 175.819 21.95C175.869 21.75 175.869 21.5 175.919 21.3C176.019 20.65 176.369 20.4 177.069 20.45C178.119 20.55 179.219 20.75 180.269 21C181.519 21.25 182.819 21.5 184.119 21.8C185.319 22.05 185.369 22.2 185.169 23.35C184.819 25.2 184.469 27.1 184.069 28.95C182.019 39.6 179.969 50.25 177.919 60.9C177.869 61.15 177.819 61.45 177.719 61.7C177.469 62.6 177.419 62.6 176.519 62.5C176.319 62.5 176.169 62.5 175.969 62.45C173.869 61.85 171.819 62.05 169.719 62.5C168.469 62.75 168.319 62.65 168.069 61.4C167.269 58.1 166.569 54.8 165.819 51.5C165.469 49.95 165.119 48.4 164.569 46.85C164.019 48.85 163.519 50.85 162.969 52.85C162.419 54.9 161.919 56.95 161.369 59C161.019 60.25 160.919 60.3 159.669 60.05C159.619 60 159.569 60 159.519 60C157.469 59.2 155.469 59.3 153.469 60.05C152.169 60.5 151.969 60.3 151.619 59.05C148.919 50.2 146.219 41.3 143.569 32.45C142.519 29 141.519 25.6 140.469 22.2C140.369 21.9 140.269 21.6 140.169 21.25C139.969 20.3 140.019 20.05 140.969 19.75C143.169 19.1 145.419 18.45 147.619 17.85C148.769 17.55 148.919 17.65 149.269 18.8C150.419 22.5 151.519 26.15 152.619 29.85C153.669 33.2 154.669 36.6 155.669 39.95C155.769 40.3 155.919 40.65 156.019 41C156.119 41 156.219 41 156.319 41Z" fill="#FF7C60"/>
<path d="M199.512 38.85C199.512 33.15 199.512 27.45 199.462 21.8C199.462 20.1 199.612 18.45 199.662 16.75C199.712 15.4 199.912 15.2 201.262 15.15C204.412 15.05 207.562 14.95 210.762 14.9C214.712 14.8 218.712 14.75 222.662 14.7C223.112 14.65 223.512 14.65 223.912 14.7C224.712 14.8 224.962 15.05 225.062 15.95C225.262 17.2 225.262 17.2 226.512 17.35C227.112 17.45 227.712 17.55 228.262 17.6C229.012 17.65 229.312 18 229.362 18.7C229.362 18.95 229.362 19.15 229.362 19.4C229.312 25 229.212 30.6 229.112 36.2C229.112 37 229.112 37.8 228.012 37.9C227.712 37.9 227.512 38.15 227.612 38.45C227.912 39.45 227.212 39.75 226.562 40.05C224.362 41.1 222.162 42.2 219.912 43.2C217.412 44.35 218.012 44.15 219.262 45.9C221.762 49.4 224.312 52.85 226.862 56.35C227.662 57.45 227.662 57.7 226.512 58.55C224.862 59.75 223.112 60.95 221.412 62.1C220.212 62.85 220.012 62.8 219.212 61.65C216.312 57.55 213.412 53.45 210.512 49.35C210.212 48.95 210.062 48.15 209.412 48.35C208.762 48.55 209.012 49.3 209.012 49.8C208.962 52.7 208.962 55.6 208.962 58.45C208.962 60.3 208.662 60.55 206.812 60.6C204.812 60.7 202.862 60.4 200.862 60.35C199.812 60.35 199.462 60.05 199.462 58.95C199.412 57.15 199.462 55.35 199.462 53.55C199.462 48.65 199.462 43.75 199.462 38.85C199.462 38.85 199.462 38.85 199.512 38.85ZM209.012 31.3C209.012 33.45 209.012 35.55 209.012 37.7C209.012 38.55 209.162 38.65 209.962 38.25C212.912 36.85 215.912 35.4 218.862 34C219.512 33.65 219.762 33.2 219.762 32.5C219.762 30.05 219.812 27.65 219.812 25.2C219.812 24.1 219.662 23.95 218.512 23.95C215.762 23.95 213.012 23.95 210.262 23.95C209.112 23.95 209.062 24.1 209.012 25.25C209.012 27.25 209.012 29.3 209.012 31.3ZM244.557 50.1C243.257 50.1 241.957 50.1 240.657 50.1C239.507 50.1 239.407 50.2 239.357 51.35C239.357 53.45 239.307 55.5 239.307 57.6C239.307 58.1 239.307 58.6 239.257 59.1C239.157 60.15 238.907 60.4 237.807 60.45C235.707 60.45 233.657 60.45 231.557 60.4C229.957 60.4 229.757 60.15 229.757 58.55C229.857 54.75 229.957 51 230.007 47.2C230.057 44.5 230.007 41.85 230.107 39.2C230.257 34.6 230.257 30.05 230.357 25.5C230.407 24.15 230.507 22.85 230.557 21.55C230.657 20.35 230.907 20.1 232.207 20.05C232.457 20.05 232.757 20.05 233.007 20.05C233.557 20.05 233.857 19.8 233.857 19.25C233.907 18.65 233.907 18.05 233.957 17.5C234.057 16.8 234.407 16.4 235.107 16.35C235.357 16.35 235.657 16.3 235.907 16.3C240.307 16.15 244.707 16 249.057 16C250.857 16 252.607 15.9 254.357 15.85C254.707 15.85 255.107 15.8 255.457 15.85C256.407 15.95 256.657 16.25 256.757 17.25C256.757 17.45 256.757 17.7 256.757 17.9C256.807 19.15 256.807 19.15 258.057 19.25C259.307 19.35 259.407 19.5 259.507 20.85C259.757 24.6 259.507 28.35 259.457 32.1C259.457 36.8 259.507 41.55 259.357 46.25C259.207 51.05 259.257 55.9 259.157 60.75C259.107 62.4 258.957 62.6 257.257 62.6C255.357 62.6 253.457 62.6 251.557 62.55C249.957 62.5 249.607 62.15 249.657 60.6C249.657 57.85 249.757 55.1 249.807 52.35C249.807 51.95 249.807 51.6 249.807 51.25C249.757 50.2 249.657 50.05 248.657 50.05C247.307 50 245.907 50.05 244.557 50.05V50.1ZM239.607 35.5C239.607 36.95 239.607 38.4 239.607 39.85C239.607 41.15 239.707 41.25 241.007 41.25C243.557 41.2 246.157 41.15 248.707 41.05C249.707 41.05 249.857 40.85 249.907 39.8C249.957 35.45 250.057 31.05 250.107 26.65C250.107 25.5 249.957 25.35 248.807 25.35C246.257 25.3 243.707 25.35 241.207 25.4C240.007 25.4 239.857 25.5 239.857 26.7C239.907 29.65 239.557 32.6 239.607 35.5ZM282.702 53.15C281.252 53.35 281.202 53.35 280.502 52.15C277.352 46.75 274.202 41.35 271.102 35.95C270.802 35.5 270.552 35.05 270.152 34.4C269.952 34.9 270.002 35.3 270.002 35.7C269.952 39.35 270.002 43 269.902 46.65C269.752 51.1 269.702 55.55 269.652 59.95C269.652 61.5 269.352 61.8 267.852 61.8C265.902 61.8 263.952 61.95 262.002 61.7C260.252 61.5 260.152 61.35 260.152 59.6C260.202 57.5 260.302 55.45 260.352 53.35C260.402 49.25 260.302 45.1 260.452 41C260.702 35.2 260.602 29.35 260.702 23.5C260.752 22.15 260.802 20.8 260.902 19.45C261.002 18.5 261.252 18.15 262.202 18.25C264.002 18.45 265.452 17.8 266.852 16.75C267.352 16.35 268.002 16.05 268.602 15.75C269.452 15.3 269.752 15.4 270.302 16.15C270.802 16.85 271.252 17.6 271.702 18.35C275.252 24.4 278.752 30.45 282.302 36.5C282.502 36.8 282.602 37.25 283.002 37.4C283.202 37.25 283.202 37.05 283.202 36.9C283.302 34.05 283.402 31.2 283.452 28.35C283.502 24.8 283.702 21.25 284.002 17.65C284.052 16.5 284.202 16.35 285.402 16.35C287.402 16.35 289.452 16.35 291.502 16.4C292.652 16.4 292.902 16.65 292.952 17.85C293.002 18.15 293.002 18.45 293.002 18.8C293.152 25.4 292.802 32 292.652 38.6C292.602 41.6 292.602 44.65 292.452 47.65C292.252 51.7 292.252 55.7 292.152 59.7C292.152 60.15 292.102 60.65 292.052 61.05C291.902 62.35 291.652 62.65 290.302 62.6C288.202 62.45 286.052 62.45 283.952 62.3C282.952 62.25 282.602 61.9 282.652 60.8C282.652 58.55 282.552 56.3 282.802 54.05C282.852 53.8 282.902 53.5 282.702 53.15ZM303.273 38.6C303.273 43.05 303.273 47.55 303.273 52C303.273 53.45 303.373 53.5 304.823 53.5C307.223 53.5 309.623 53.4 312.023 53.25C313.023 53.15 313.123 53.1 313.173 52C313.173 50.05 313.223 48.1 313.223 46.15C313.223 45.05 313.073 44.9 311.973 44.9C310.723 44.85 309.423 44.9 308.173 44.9C307.123 44.9 306.823 44.7 306.773 43.65C306.673 41.45 306.673 39.25 306.673 37C306.673 36.4 307.023 36.15 307.623 36.1C308.173 36.05 308.673 35.95 309.223 35.9C311.773 35.8 314.273 35.7 316.823 35.6C318.373 35.55 318.423 35.6 318.923 37.05C319.073 37.5 319.373 37.7 319.773 37.75C320.323 37.85 320.873 37.95 321.423 38C322.373 38.05 322.573 38.25 322.673 39.2C322.723 39.45 322.723 39.65 322.723 39.9C322.723 43.4 322.823 46.95 322.623 50.45C322.473 52.9 322.523 55.35 322.473 57.8C322.473 59.35 322.373 59.5 320.823 59.6C320.073 59.65 319.823 59.95 319.723 60.65C319.623 61.9 319.473 61.95 318.223 62.05C315.173 62.25 312.073 62.2 309.023 62.35C305.823 62.45 302.673 62.55 299.523 62.6C299.123 62.6 298.723 62.6 298.273 62.6C297.273 62.55 297.173 62.55 296.923 61.5C296.773 60.9 296.473 60.7 295.873 60.7C295.773 60.7 295.723 60.7 295.623 60.7C294.173 60.65 293.923 60.4 293.923 58.9C293.873 56.3 293.873 53.75 293.873 51.15C293.873 42.1 293.573 33 293.723 23.9C293.773 22.05 293.823 20.2 293.923 18.35C293.973 17.3 294.123 17.1 295.173 16.9C295.423 16.85 295.723 16.85 295.973 16.85C296.573 16.85 296.823 16.6 296.923 15.95C297.173 14.65 297.173 14.65 298.473 14.65C305.323 14.65 312.223 14.65 319.073 14.65C320.323 14.65 320.373 14.7 320.573 15.9C320.673 16.6 320.973 16.8 321.623 16.85C322.973 17 322.923 17 323.123 18.35C323.323 19.75 323.273 21.15 323.323 22.55C323.423 23.95 323.523 25.35 323.523 26.75C323.523 28.05 323.223 28.35 321.923 28.4C320.523 28.45 319.123 28.35 317.723 28.6C317.623 28.65 317.473 28.6 317.323 28.6C314.773 28.65 314.523 28.45 314.473 25.95C314.423 23.4 314.423 23.4 311.873 23.4C309.523 23.4 307.173 23.4 304.823 23.4C303.323 23.4 303.223 23.5 303.223 25C303.223 29.55 303.223 34.05 303.223 38.6H303.273ZM323.968 24.1C323.968 22.15 323.968 20.2 323.968 18.25C323.968 16.85 324.118 16.8 325.468 16.6C327.618 16.3 329.768 16.2 331.868 16.45C333.818 16.7 335.718 16.7 337.668 16.6C341.918 16.45 346.118 16.2 350.368 16C350.668 15.95 350.918 15.95 351.218 15.95C352.468 16.1 352.768 16.35 352.818 17.65C352.868 19.55 352.868 21.45 352.868 23.35C352.868 24.6 352.668 24.8 351.518 24.9C350.718 25 349.968 25.05 349.218 25.1C345.768 25.25 342.318 25.35 338.918 25.5C337.468 25.55 336.018 25.6 334.568 25.7C333.718 25.8 333.568 25.9 333.568 26.8C333.568 29.35 333.618 31.85 333.668 34.4C333.718 35.4 333.768 36.4 333.818 37.4C333.868 38.2 334.018 38.3 334.818 38.2C337.618 37.75 340.368 37.3 343.168 36.9C343.318 36.85 343.518 36.8 343.668 36.8C344.968 36.65 345.218 36.85 345.418 38.05C345.768 39.9 346.068 41.7 346.318 43.55C346.518 45.15 346.418 45.25 344.918 45.55C342.318 46.05 339.718 46.45 337.168 46.9C336.418 47 335.718 47.1 335.018 47.25C334.418 47.3 334.118 47.65 334.118 48.25C334.118 49.65 334.118 51.05 334.168 52.45C334.168 53.1 334.568 53.25 335.168 53.2C338.768 52.85 342.368 52.55 345.968 52.3C348.218 52.1 350.468 52 352.718 51.9C354.018 51.85 354.118 51.95 354.268 53.2C354.568 55.25 354.718 57.25 354.718 59.3C354.718 60.2 354.618 60.4 353.668 60.55C352.668 60.75 351.668 60.8 350.668 60.9C347.968 61.15 345.218 61.35 342.468 61.55C338.318 61.9 334.168 62.2 330.018 62.55C329.668 62.55 329.268 62.6 328.918 62.6C328.368 62.65 327.868 62.5 327.668 61.85C327.568 61.2 327.068 61.05 326.468 61C325.418 60.9 325.068 60.55 324.918 59.5C324.868 59.15 324.868 58.85 324.818 58.55C324.718 53.6 324.618 48.7 324.518 43.75C324.318 37.2 324.118 30.65 323.918 24.1C323.968 24.1 323.968 24.1 323.968 24.1ZM355.243 38.85C355.243 33.15 355.243 27.45 355.193 21.8C355.193 20.1 355.343 18.45 355.393 16.75C355.443 15.4 355.643 15.2 356.993 15.15C360.143 15.05 363.293 14.95 366.493 14.9C370.443 14.8 374.443 14.75 378.393 14.7C378.843 14.65 379.243 14.65 379.643 14.7C380.443 14.8 380.693 15.05 380.793 15.95C380.993 17.2 380.993 17.2 382.243 17.35C382.843 17.45 383.443 17.55 383.993 17.6C384.743 17.65 385.043 18 385.093 18.7C385.093 18.95 385.093 19.15 385.093 19.4C385.043 25 384.943 30.6 384.843 36.2C384.843 37 384.843 37.8 383.743 37.9C383.443 37.9 383.243 38.15 383.343 38.45C383.643 39.45 382.943 39.75 382.293 40.05C380.093 41.1 377.893 42.2 375.643 43.2C373.143 44.35 373.743 44.15 374.993 45.9C377.493 49.4 380.043 52.85 382.593 56.35C383.393 57.45 383.393 57.7 382.243 58.55C380.593 59.75 378.843 60.95 377.143 62.1C375.943 62.85 375.743 62.8 374.943 61.65C372.043 57.55 369.143 53.45 366.243 49.35C365.943 48.95 365.793 48.15 365.143 48.35C364.493 48.55 364.743 49.3 364.743 49.8C364.693 52.7 364.693 55.6 364.693 58.45C364.693 60.3 364.393 60.55 362.543 60.6C360.543 60.7 358.593 60.4 356.593 60.35C355.543 60.35 355.193 60.05 355.193 58.95C355.143 57.15 355.193 55.35 355.193 53.55C355.193 48.65 355.193 43.75 355.193 38.85C355.193 38.85 355.193 38.85 355.243 38.85ZM364.743 31.3C364.743 33.45 364.743 35.55 364.743 37.7C364.743 38.55 364.893 38.65 365.693 38.25C368.643 36.85 371.643 35.4 374.593 34C375.243 33.65 375.493 33.2 375.493 32.5C375.493 30.05 375.543 27.65 375.543 25.2C375.543 24.1 375.393 23.95 374.243 23.95C371.493 23.95 368.743 23.95 365.993 23.95C364.843 23.95 364.793 24.1 364.743 25.25C364.743 27.25 364.743 29.3 364.743 31.3Z" fill="#FFE664"/>
</svg>