<svg width="256" height="256" viewBox="0 0 256 256" fill="none" xmlns="http://www.w3.org/2000/svg">
<path d="M240 96C240 98.1217 239.157 100.157 237.657 101.657C236.157 103.157 234.122 104 232 104H216V120C216 122.122 215.157 124.157 213.657 125.657C212.157 127.157 210.122 128 208 128C205.878 128 203.843 127.157 202.343 125.657C200.843 124.157 200 122.122 200 120V104H184C181.878 104 179.843 103.157 178.343 101.657C176.843 100.157 176 98.1217 176 96C176 93.8783 176.843 91.8434 178.343 90.3431C179.843 88.8429 181.878 88 184 88H200V72C200 69.8783 200.843 67.8434 202.343 66.3431C203.843 64.8429 205.878 64 208 64C210.122 64 212.157 64.8429 213.657 66.3431C215.157 67.8434 216 69.8783 216 72V88H232C234.122 88 236.157 88.8429 237.657 90.3431C239.157 91.8434 240 93.8783 240 96ZM144 56H152V64C152 66.1217 152.843 68.1566 154.343 69.6569C155.843 71.1571 157.878 72 160 72C162.122 72 164.157 71.1571 165.657 69.6569C167.157 68.1566 168 66.1217 168 64V56H176C178.122 56 180.157 55.1571 181.657 53.6569C183.157 52.1566 184 50.1217 184 48C184 45.8783 183.157 43.8434 181.657 42.3431C180.157 40.8429 178.122 40 176 40H168V32C168 29.8783 167.157 27.8434 165.657 26.3431C164.157 24.8429 162.122 24 160 24C157.878 24 155.843 24.8429 154.343 26.3431C152.843 27.8434 152 29.8783 152 32V40H144C141.878 40 139.843 40.8429 138.343 42.3431C136.843 43.8434 136 45.8783 136 48C136 50.1217 136.843 52.1566 138.343 53.6569C139.843 55.1571 141.878 56 144 56ZM209.14 150.33C194.95 153.133 180.289 152.399 166.45 148.191C152.612 143.984 140.023 136.433 129.795 126.205C119.567 115.977 112.016 103.388 107.809 89.5499C103.601 75.7114 102.866 61.0497 105.67 46.86C105.945 45.4675 105.844 44.027 105.378 42.6862C104.912 41.3455 104.098 40.1529 103.019 39.2307C101.94 38.3085 100.635 37.69 99.2383 37.4386C97.8414 37.1871 96.4028 37.3119 95.07 37.8C79.9213 43.3393 66.4126 52.6062 55.7911 64.745C45.1697 76.8839 37.7781 91.5032 34.2987 107.253C30.8194 123.003 31.3646 139.376 35.8839 154.859C40.4032 170.343 48.751 184.438 60.1564 195.844C71.5618 207.249 85.6571 215.597 101.141 220.116C116.624 224.635 132.997 225.181 148.747 221.701C164.497 218.222 179.116 210.83 191.255 200.209C203.394 189.587 212.661 176.079 218.2 160.93C218.688 159.597 218.813 158.159 218.561 156.762C218.31 155.365 217.691 154.06 216.769 152.981C215.847 151.902 214.654 151.088 213.314 150.622C211.973 150.156 210.533 150.055 209.14 150.33Z" fill="#FFC700"/>
</svg>