<svg width="20" height="20" viewBox="0 0 20 20" fill="none" xmlns="http://www.w3.org/2000/svg">
<path fill-rule="evenodd" clip-rule="evenodd" d="M3.70692 2.29292C3.51832 2.11076 3.26571 2.00997 3.00352 2.01224C2.74132 2.01452 2.49051 2.11969 2.3051 2.3051C2.11969 2.49051 2.01452 2.74132 2.01224 3.00352C2.00997 3.26571 2.11076 3.51832 2.29292 3.70692L16.2929 17.7069C16.4815 17.8891 16.7341 17.9899 16.9963 17.9876C17.2585 17.9853 17.5093 17.8801 17.6947 17.6947C17.8801 17.5093 17.9853 17.2585 17.9876 16.9963C17.9899 16.7341 17.8891 16.4815 17.7069 16.2929L16.2339 14.8199C17.7914 13.578 18.9432 11.8998 19.5419 9.99992C18.2679 5.94292 14.4779 2.99992 9.99992 2.99992C8.43235 2.99779 6.88642 3.36577 5.48792 4.07392L3.70692 2.29292ZM7.96792 6.55292L9.48192 8.06792C9.82101 7.97787 10.1778 7.97847 10.5166 8.06965C10.8554 8.16083 11.1643 8.3394 11.4124 8.58748C11.6604 8.83557 11.839 9.14446 11.9302 9.48325C12.0214 9.82204 12.022 10.1788 11.9319 10.5179L13.4459 12.0319C13.8969 11.2679 14.0811 10.3757 13.9696 9.49559C13.858 8.61548 13.4571 7.79741 12.8297 7.1701C12.2024 6.54278 11.3844 6.14181 10.5042 6.03027C9.62412 5.91872 8.7319 6.10193 7.96792 6.55292Z" fill="#B1B1B1"/>
<path d="M12.454 16.6969L9.75001 13.9919C8.77769 13.931 7.86103 13.5173 7.17206 12.8285C6.4831 12.1397 6.06918 11.2232 6.00801 10.2509L2.33501 6.57788C1.49022 7.5839 0.852357 8.7468 0.458008 9.99988C1.73201 14.0569 5.52301 16.9999 10 16.9999C10.847 16.9999 11.669 16.8949 12.454 16.6969Z" fill="#B1B1B1"/>
</svg>
