<svg width="20" height="20" viewBox="0 0 20 20" fill="none" xmlns="http://www.w3.org/2000/svg">
<path d="M10 12.5C10.663 12.5 11.2989 12.2366 11.7678 11.7678C12.2366 11.2989 12.5 10.663 12.5 10C12.5 9.33696 12.2366 8.70107 11.7678 8.23223C11.2989 7.76339 10.663 7.5 10 7.5C9.33696 7.5 8.70107 7.76339 8.23223 8.23223C7.76339 8.70107 7.5 9.33696 7.5 10C7.5 10.663 7.76339 11.2989 8.23223 11.7678C8.70107 12.2366 9.33696 12.5 10 12.5Z" fill="black"/>
<path fill-rule="evenodd" clip-rule="evenodd" d="M0.663883 10.59C0.516987 10.2083 0.516987 9.78569 0.663883 9.404C1.39111 7.51849 2.67234 5.89744 4.33884 4.75431C6.00535 3.61117 7.97899 2.99956 9.99988 3C14.2569 3 17.8929 5.66 19.3359 9.41C19.4829 9.791 19.4819 10.214 19.3359 10.596C18.6087 12.4815 17.3274 14.1026 15.6609 15.2457C13.9944 16.3888 12.0208 17.0004 9.99988 17C5.74288 17 2.10688 14.34 0.663883 10.59ZM13.9999 10C13.9999 11.0609 13.5785 12.0783 12.8283 12.8284C12.0782 13.5786 11.0607 14 9.99988 14C8.93902 14 7.9216 13.5786 7.17146 12.8284C6.42131 12.0783 5.99988 11.0609 5.99988 10C5.99988 8.93913 6.42131 7.92172 7.17146 7.17157C7.9216 6.42143 8.93902 6 9.99988 6C11.0607 6 12.0782 6.42143 12.8283 7.17157C13.5785 7.92172 13.9999 8.93913 13.9999 10Z" fill="black"/>
</svg>
