<svg width="16" height="16" viewBox="0 0 16 16" fill="black" xmlns="http://www.w3.org/2000/svg">
<g clip-path="url(#clip0_83_2651)">
<path d="M15.726 14.8407L14.3247 13.44C14.6199 12.9894 14.8009 12.4737 14.8522 11.9374C14.9035 11.4012 14.8235 10.8605 14.619 10.3621C14.4146 9.86364 14.0919 9.42249 13.6788 9.07671C13.2657 8.73092 12.7746 8.4909 12.248 8.37737L12.226 8.37337V5.6607C12.2261 5.50341 12.1712 5.35104 12.0707 5.23004L12.0713 5.23137V5.22804C12.0587 5.21275 12.0454 5.19806 12.0313 5.18404L12.026 5.17804L12.008 5.16004L7.048 0.200038C7.0342 0.186237 7.01974 0.173111 7.00467 0.160704L6.98733 0.148704C6.97651 0.13989 6.96539 0.131441 6.954 0.123371L6.93733 0.111371L6.90133 0.0887044L6.886 0.0807044C6.87089 0.0718155 6.85422 0.0635933 6.836 0.0560378L6.81467 0.0473711L6.78067 0.0353711L6.75667 0.0280378L6.718 0.0180378L6.69933 0.0140378C6.68039 0.0101241 6.66125 0.00723109 6.642 0.00537109H0.676667C0.497764 0.00606915 0.326359 0.0773109 0.199668 0.203628C0.0729764 0.329944 0.00122761 0.501138 0 0.680038L0 14.2647C0.000173975 14.4444 0.0714367 14.6166 0.198222 14.7439C0.325008 14.8712 0.497013 14.9432 0.676667 14.944H11.55C12.2 14.9452 12.8358 14.7533 13.3767 14.3927L13.3647 14.4L14.766 15.8014C14.8952 15.9189 15.0647 15.9822 15.2393 15.978C15.4139 15.9739 15.5802 15.9026 15.7037 15.7791C15.8271 15.6555 15.8983 15.4892 15.9023 15.3146C15.9063 15.1399 15.843 14.9705 15.7253 14.8414L15.726 14.842V14.8407ZM13.5093 11.6227C13.5094 11.8804 13.4587 12.1356 13.3601 12.3737C13.2615 12.6118 13.117 12.8281 12.9348 13.0104C12.7526 13.1926 12.5363 13.3372 12.2983 13.4359C12.0602 13.5345 11.805 13.5853 11.5473 13.5854C11.2896 13.5854 11.0345 13.5347 10.7964 13.4361C10.5583 13.3376 10.3419 13.193 10.1597 13.0109C9.97741 12.8287 9.83282 12.6124 9.73417 12.3743C9.63551 12.1362 9.58471 11.8811 9.58467 11.6234C9.58449 11.1029 9.79107 10.6037 10.1589 10.2356C10.5268 9.86746 11.0259 9.66055 11.5463 9.66037C12.0668 9.66019 12.566 9.86677 12.9341 10.2347C13.3022 10.6025 13.5092 11.1023 13.5093 11.6227ZM7.24533 2.3187L9.90733 4.98137H7.24533V2.3187ZM1.35867 1.3587H5.88733V5.6607C5.88733 6.03604 6.19133 6.34004 6.56667 6.34004H10.8687V8.37337C9.35 8.69804 8.22733 10.0287 8.22733 11.622C8.22733 12.3614 8.46867 13.044 8.87733 13.5954L8.87067 13.5867H1.358L1.35867 1.3587Z" fill={fill}/>
</g>
<defs>
<clipPath id="clip0_83_2651">
<rect width="16" height="16" fill="white"/>
</clipPath>
</defs>
</svg>
