<svg width="19" height="19" viewBox="0 0 19 19" fill="black" xmlns="http://www.w3.org/2000/svg">
<g clip-path="url(#clip0_82_549)">
<path fill-rule="evenodd" clip-rule="evenodd" d="M4.75008 1.58325C4.33016 1.58325 3.92743 1.75007 3.6305 2.047C3.33356 2.34393 3.16675 2.74666 3.16675 3.16659V15.8333C3.16675 16.2532 3.33356 16.6559 3.6305 16.9528C3.92743 17.2498 4.33016 17.4166 4.75008 17.4166H14.2501C14.67 17.4166 15.0727 17.2498 15.3697 16.9528C15.6666 16.6559 15.8334 16.2532 15.8334 15.8333V5.07767C15.8333 4.65778 15.6665 4.25512 15.3695 3.95825L13.4584 2.04717C13.1616 1.75022 12.7589 1.58334 12.339 1.58325H4.75008ZM4.75008 3.16659H12.339L14.2501 5.07767V15.8333H4.75008V3.16659ZM12.8552 8.54438C12.9308 8.47135 12.9911 8.38399 13.0326 8.28741C13.0741 8.19082 13.0959 8.08694 13.0968 7.98182C13.0977 7.8767 13.0777 7.77246 13.0379 7.67516C12.9981 7.57787 12.9393 7.48948 12.865 7.41515C12.7906 7.34082 12.7023 7.28203 12.605 7.24223C12.5077 7.20242 12.4034 7.18239 12.2983 7.1833C12.1932 7.18422 12.0893 7.20606 11.9927 7.24755C11.8961 7.28904 11.8088 7.34935 11.7357 7.42496L8.3775 10.7832L7.25729 9.66379C7.10798 9.51958 6.908 9.43979 6.70043 9.44159C6.49286 9.4434 6.2943 9.52666 6.14752 9.67344C6.00074 9.82022 5.91748 10.0188 5.91567 10.2264C5.91387 10.4339 5.99366 10.6339 6.13787 10.7832L7.76079 12.4069C7.84166 12.4878 7.93768 12.552 8.04336 12.5958C8.14904 12.6396 8.26231 12.6621 8.37671 12.6621C8.4911 12.6621 8.60437 12.6396 8.71005 12.5958C8.81574 12.552 8.91175 12.4878 8.99262 12.4069L12.8552 8.54438Z" fill={fill}/>
</g>
<defs>
<clipPath id="clip0_82_549">
<rect width="19" height="19" fill="white"/>
</clipPath>
</defs>
</svg>
