<svg width="16" height="16" viewBox="0 0 16 16" fill="none" stroke="#8A8A8A" xmlns="http://www.w3.org/2000/svg">
<path d="M10 10L14 14M6.66667 11.3333C6.05383 11.3333 5.447 11.2126 4.88081 10.9781C4.31462 10.7436 3.80018 10.3998 3.36683 9.9665C2.93349 9.53316 2.58975 9.01871 2.35523 8.45252C2.12071 7.88634 2 7.2795 2 6.66667C2 6.05383 2.12071 5.447 2.35523 4.88081C2.58975 4.31462 2.93349 3.80018 3.36683 3.36683C3.80018 2.93349 4.31462 2.58975 4.88081 2.35523C5.447 2.12071 6.05383 2 6.66667 2C7.90434 2 9.09133 2.49167 9.9665 3.36683C10.8417 4.242 11.3333 5.42899 11.3333 6.66667C11.3333 7.90434 10.8417 9.09133 9.9665 9.9665C9.09133 10.8417 7.90434 11.3333 6.66667 11.3333Z" stroke={stroke} stroke-width="2" stroke-linecap="round" stroke-linejoin="round"/>
</svg>
