<svg width="20" height="20" viewBox="0 0 20 20" fill="none" xmlns="http://www.w3.org/2000/svg">
<g clip-path="url(#clip0_1923_3968)">
<path d="M7.89991 5.6873C6.38324 6.25563 5.62491 6.53896 5.53408 7.12813C5.44241 7.7173 6.07824 8.22063 7.34991 9.22813L7.67824 9.48896C8.03991 9.7748 8.21991 9.91813 8.32408 10.114C8.42741 10.3081 8.44241 10.5331 8.47158 10.9831L8.49824 11.3931C8.60241 12.9765 8.65408 13.7681 9.20324 14.0406C9.75158 14.314 10.4341 13.8873 11.7991 13.034L12.1516 12.8131C12.5399 12.5715 12.7332 12.4498 12.9557 12.4165C13.1774 12.3831 13.4016 12.4415 13.8507 12.5581L14.2591 12.664C15.8399 13.0748 16.6299 13.2806 17.0607 12.8606C17.4916 12.4398 17.2774 11.6731 16.8491 10.1381M17.2207 7.7448C18.0941 6.41563 18.5307 5.75063 18.2474 5.21813C17.9649 4.6848 17.1507 4.6373 15.5216 4.5423L15.0999 4.5173C14.6366 4.49063 14.4049 4.4773 14.2041 4.3773C14.0032 4.2773 13.8549 4.1023 13.5599 3.7523L13.2907 3.43313C12.2491 2.1998 11.7291 1.58396 11.1241 1.6748C10.5182 1.76646 10.2291 2.50396 9.64991 3.9798" fill="#FFE146"/>
<path d="M7.89991 5.6873C6.38324 6.25563 5.62491 6.53896 5.53408 7.12813C5.44241 7.7173 6.07824 8.22063 7.34991 9.22813L7.67824 9.48896C8.03991 9.7748 8.21991 9.91813 8.32408 10.114C8.42741 10.3081 8.44241 10.5331 8.47158 10.9831L8.49824 11.3931C8.60241 12.9765 8.65408 13.7681 9.20324 14.0406C9.75158 14.314 10.4341 13.8873 11.7991 13.034L12.1516 12.8131C12.5399 12.5715 12.7332 12.4498 12.9557 12.4165C13.1774 12.3831 13.4016 12.4415 13.8507 12.5581L14.2591 12.664C15.8399 13.0748 16.6299 13.2806 17.0607 12.8606C17.4916 12.4398 17.2774 11.6731 16.8491 10.1381M17.2207 7.7448C18.0941 6.41563 18.5307 5.75063 18.2474 5.21813C17.9649 4.6848 17.1507 4.6373 15.5216 4.5423L15.0999 4.5173C14.6366 4.49063 14.4049 4.4773 14.2041 4.3773C14.0032 4.2773 13.8549 4.1023 13.5599 3.7523L13.2907 3.43313C12.2491 2.1998 11.7291 1.58396 11.1241 1.6748C10.5182 1.76646 10.2291 2.50396 9.64991 3.9798" stroke-width="1.5" stroke-linecap="round"/>
<path d="M5.49587 7.125C2.9017 8.90583 0.915033 12.3083 1.94253 18.3333C2.85253 15.8217 5.5942 13.81 8.6567 12.8417" stroke-width="1.5" stroke-linecap="round" stroke-linejoin="round"/>
</g>
<defs>
<clipPath id="clip0_1923_3968">
<rect width="20" height="20" fill="white"/>
</clipPath>
</defs>
</svg>
