<svg width="20" height="20" viewBox="0 0 20 20" fill="none" xmlns="http://www.w3.org/2000/svg">
<path d="M4.1665 4.99967C4.1665 4.55765 4.3421 4.13372 4.65466 3.82116C4.96722 3.5086 5.39114 3.33301 5.83317 3.33301H14.1665C14.6085 3.33301 15.0325 3.5086 15.345 3.82116C15.6576 4.13372 15.8332 4.55765 15.8332 4.99967V5.83301C15.8332 6.05402 15.7454 6.26598 15.5891 6.42226C15.4328 6.57854 15.2209 6.66634 14.9998 6.66634C14.7788 6.66634 14.5669 6.57854 14.4106 6.42226C14.2543 6.26598 14.1665 6.05402 14.1665 5.83301V4.99967H10.8332V14.9997H11.6665C11.8875 14.9997 12.0995 15.0875 12.2558 15.2438C12.412 15.4 12.4998 15.612 12.4998 15.833C12.4998 16.054 12.412 16.266 12.2558 16.4223C12.0995 16.5785 11.8875 16.6663 11.6665 16.6663H8.33317C8.11216 16.6663 7.9002 16.5785 7.74392 16.4223C7.58764 16.266 7.49984 16.054 7.49984 15.833C7.49984 15.612 7.58764 15.4 7.74392 15.2438C7.9002 15.0875 8.11216 14.9997 8.33317 14.9997H9.1665V4.99967H5.83317V5.83301C5.83317 6.05402 5.74537 6.26598 5.58909 6.42226C5.43281 6.57854 5.22085 6.66634 4.99984 6.66634C4.77882 6.66634 4.56686 6.57854 4.41058 6.42226C4.2543 6.26598 4.1665 6.05402 4.1665 5.83301V4.99967Z"/>
</svg>
