<svg width="93" height="24" viewBox="0 0 93 24" fill="none" xmlns="http://www.w3.org/2000/svg">
<path d="M0.305813 12.208C0.305813 9.472 0.305813 6.736 0.281813 4.024C0.281813 3.208 0.353813 2.416 0.377813 1.6C0.401813 0.951999 0.497813 0.855999 1.14581 0.831999C2.65781 0.783998 4.16981 0.735999 5.70581 0.711999C7.60181 0.663999 9.52181 0.639999 11.4178 0.615999C11.6338 0.592 11.8258 0.592 12.0178 0.615999C12.4018 0.663999 12.5218 0.783998 12.5698 1.216C12.6658 1.816 12.6658 1.816 13.2658 1.888C13.5538 1.936 13.8418 1.984 14.1058 2.008C14.4658 2.032 14.6098 2.2 14.6338 2.536C14.6338 2.656 14.6338 2.752 14.6338 2.872C14.6098 5.56 14.5618 8.248 14.5138 10.936C14.5138 11.32 14.5138 11.704 13.9858 11.752C13.8418 11.752 13.7458 11.872 13.7938 12.016C13.9378 12.496 13.6018 12.64 13.2898 12.784C12.2338 13.288 11.1778 13.816 10.0978 14.296C8.89781 14.848 9.18581 14.752 9.78581 15.592C10.9858 17.272 12.2098 18.928 13.4338 20.608C13.8178 21.136 13.8178 21.256 13.2658 21.664C12.4738 22.24 11.6338 22.816 10.8178 23.368C10.2418 23.728 10.1458 23.704 9.76181 23.152C8.36981 21.184 6.97781 19.216 5.58581 17.248C5.44181 17.056 5.36981 16.672 5.05781 16.768C4.74581 16.864 4.86581 17.224 4.86581 17.464C4.84181 18.856 4.84181 20.248 4.84181 21.616C4.84181 22.504 4.69781 22.624 3.80981 22.648C2.84981 22.696 1.91381 22.552 0.953813 22.528C0.449813 22.528 0.281813 22.384 0.281813 21.856C0.257812 20.992 0.281813 20.128 0.281813 19.264C0.281813 16.912 0.281813 14.56 0.281813 12.208C0.281813 12.208 0.281813 12.208 0.305813 12.208ZM4.86581 8.584C4.86581 9.616 4.86581 10.624 4.86581 11.656C4.86581 12.064 4.93781 12.112 5.32181 11.92C6.73781 11.248 8.17781 10.552 9.59381 9.88C9.90581 9.712 10.0258 9.496 10.0258 9.16C10.0258 7.984 10.0498 6.832 10.0498 5.656C10.0498 5.128 9.97781 5.056 9.42581 5.056C8.10581 5.056 6.78581 5.056 5.46581 5.056C4.91381 5.056 4.88981 5.128 4.86581 5.68C4.86581 6.64 4.86581 7.624 4.86581 8.584ZM22.4556 17.608C21.8316 17.608 21.2076 17.608 20.5836 17.608C20.0316 17.608 19.9836 17.656 19.9596 18.208C19.9596 19.216 19.9356 20.2 19.9356 21.208C19.9356 21.448 19.9356 21.688 19.9116 21.928C19.8636 22.432 19.7436 22.552 19.2156 22.576C18.2076 22.576 17.2236 22.576 16.2156 22.552C15.4476 22.552 15.3516 22.432 15.3516 21.664C15.3996 19.84 15.4476 18.04 15.4716 16.216C15.4956 14.92 15.4716 13.648 15.5196 12.376C15.5916 10.168 15.5916 7.984 15.6396 5.8C15.6636 5.152 15.7116 4.528 15.7356 3.904C15.7836 3.328 15.9036 3.208 16.5276 3.184C16.6476 3.184 16.7916 3.184 16.9116 3.184C17.1756 3.184 17.3196 3.064 17.3196 2.8C17.3436 2.512 17.3436 2.224 17.3676 1.96C17.4156 1.624 17.5836 1.432 17.9196 1.408C18.0396 1.408 18.1836 1.384 18.3036 1.384C20.4156 1.312 22.5276 1.24 24.6156 1.24C25.4796 1.24 26.3196 1.192 27.1596 1.168C27.3276 1.168 27.5196 1.144 27.6876 1.168C28.1436 1.216 28.2636 1.36 28.3116 1.84C28.3116 1.936 28.3116 2.056 28.3116 2.152C28.3356 2.752 28.3356 2.752 28.9356 2.8C29.5356 2.848 29.5836 2.92 29.6316 3.568C29.7516 5.368 29.6316 7.168 29.6076 8.968C29.6076 11.224 29.6316 13.504 29.5596 15.76C29.4876 18.064 29.5116 20.392 29.4636 22.72C29.4396 23.512 29.3676 23.608 28.5516 23.608C27.6396 23.608 26.7276 23.608 25.8156 23.584C25.0476 23.56 24.8796 23.392 24.9036 22.648C24.9036 21.328 24.9516 20.008 24.9756 18.688C24.9756 18.496 24.9756 18.328 24.9756 18.16C24.9516 17.656 24.9036 17.584 24.4236 17.584C23.7756 17.56 23.1036 17.584 22.4556 17.584V17.608ZM20.0796 10.6C20.0796 11.296 20.0796 11.992 20.0796 12.688C20.0796 13.312 20.1276 13.36 20.7516 13.36C21.9756 13.336 23.2236 13.312 24.4476 13.264C24.9276 13.264 24.9996 13.168 25.0236 12.664C25.0476 10.576 25.0956 8.464 25.1196 6.352C25.1196 5.8 25.0476 5.728 24.4956 5.728C23.2716 5.704 22.0476 5.728 20.8476 5.752C20.2716 5.752 20.1996 5.8 20.1996 6.376C20.2236 7.792 20.0556 9.208 20.0796 10.6ZM41.2928 19.072C40.5968 19.168 40.5728 19.168 40.2368 18.592C38.7248 16 37.2128 13.408 35.7248 10.816C35.5808 10.6 35.4608 10.384 35.2688 10.072C35.1728 10.312 35.1968 10.504 35.1968 10.696C35.1728 12.448 35.1968 14.2 35.1488 15.952C35.0768 18.088 35.0528 20.224 35.0288 22.336C35.0288 23.08 34.8848 23.224 34.1648 23.224C33.2288 23.224 32.2928 23.296 31.3568 23.176C30.5168 23.08 30.4688 23.008 30.4688 22.168C30.4928 21.16 30.5408 20.176 30.5648 19.168C30.5888 17.2 30.5408 15.208 30.6128 13.24C30.7328 10.456 30.6848 7.648 30.7328 4.84C30.7568 4.192 30.7808 3.544 30.8288 2.896C30.8768 2.44 30.9968 2.272 31.4528 2.32C32.3168 2.416 33.0128 2.104 33.6848 1.6C33.9248 1.408 34.2368 1.264 34.5248 1.12C34.9328 0.904 35.0768 0.951999 35.3408 1.312C35.5808 1.648 35.7968 2.008 36.0128 2.368C37.7168 5.272 39.3968 8.176 41.1008 11.08C41.1968 11.224 41.2448 11.44 41.4368 11.512C41.5328 11.44 41.5328 11.344 41.5328 11.272C41.5808 9.904 41.6288 8.536 41.6528 7.168C41.6768 5.464 41.7728 3.76 41.9168 2.032C41.9408 1.48 42.0128 1.408 42.5887 1.408C43.5488 1.408 44.5328 1.408 45.5168 1.432C46.0688 1.432 46.1888 1.552 46.2128 2.128C46.2368 2.272 46.2368 2.416 46.2368 2.584C46.3088 5.752 46.1408 8.92 46.0688 12.088C46.0448 13.528 46.0448 14.992 45.9728 16.432C45.8768 18.376 45.8768 20.296 45.8288 22.216C45.8288 22.432 45.8048 22.672 45.7808 22.864C45.7088 23.488 45.5888 23.632 44.9408 23.608C43.9328 23.536 42.9008 23.536 41.8928 23.464C41.4128 23.44 41.2448 23.272 41.2688 22.744C41.2688 21.664 41.2208 20.584 41.3408 19.504C41.3648 19.384 41.3888 19.24 41.2928 19.072ZM51.6951 12.088C51.6951 14.224 51.6951 16.384 51.6951 18.52C51.6951 19.216 51.7431 19.24 52.4391 19.24C53.5911 19.24 54.7431 19.192 55.8951 19.12C56.3751 19.072 56.4231 19.048 56.4471 18.52C56.4471 17.584 56.4711 16.648 56.4711 15.712C56.4711 15.184 56.3991 15.112 55.8711 15.112C55.2711 15.088 54.6471 15.112 54.0471 15.112C53.5431 15.112 53.3991 15.016 53.3751 14.512C53.3271 13.456 53.3271 12.4 53.3271 11.32C53.3271 11.032 53.4951 10.912 53.7831 10.888C54.0471 10.864 54.2871 10.816 54.5511 10.792C55.7751 10.744 56.9751 10.696 58.1991 10.648C58.9431 10.624 58.9671 10.648 59.2071 11.344C59.2791 11.56 59.4231 11.656 59.6151 11.68C59.8791 11.728 60.1431 11.776 60.4071 11.8C60.8631 11.824 60.9591 11.92 61.0071 12.376C61.0311 12.496 61.0311 12.592 61.0311 12.712C61.0311 14.392 61.0791 16.096 60.9831 17.776C60.9111 18.952 60.9351 20.128 60.9111 21.304C60.9111 22.048 60.8631 22.12 60.1191 22.168C59.7591 22.192 59.6391 22.336 59.5911 22.672C59.5431 23.272 59.4711 23.296 58.8711 23.344C57.4071 23.44 55.9191 23.416 54.4551 23.488C52.9191 23.536 51.4071 23.584 49.8951 23.608C49.7031 23.608 49.5111 23.608 49.2951 23.608C48.8151 23.584 48.7671 23.584 48.6471 23.08C48.5751 22.792 48.4311 22.696 48.1431 22.696C48.0951 22.696 48.0711 22.696 48.0231 22.696C47.3271 22.672 47.2071 22.552 47.2071 21.832C47.1831 20.584 47.1831 19.36 47.1831 18.112C47.1831 13.768 47.0391 9.4 47.1111 5.032C47.1351 4.144 47.1591 3.256 47.2071 2.368C47.2311 1.864 47.3031 1.768 47.8071 1.672C47.9271 1.648 48.0711 1.648 48.1911 1.648C48.4791 1.648 48.5991 1.528 48.6471 1.216C48.7671 0.592 48.7671 0.592 49.3911 0.592C52.6791 0.592 55.9911 0.592 59.2791 0.592C59.8791 0.592 59.9031 0.615999 59.9991 1.192C60.0471 1.528 60.1911 1.624 60.5031 1.648C61.1511 1.72 61.1271 1.72 61.2231 2.368C61.3191 3.04 61.2951 3.712 61.3191 4.384C61.3671 5.056 61.4151 5.728 61.4151 6.4C61.4151 7.024 61.2711 7.168 60.6471 7.192C59.9751 7.216 59.3031 7.168 58.6311 7.288C58.5831 7.312 58.5111 7.288 58.4391 7.288C57.2151 7.312 57.0951 7.216 57.0711 6.016C57.0471 4.792 57.0471 4.792 55.8231 4.792C54.6951 4.792 53.5671 4.792 52.4391 4.792C51.7191 4.792 51.6711 4.84 51.6711 5.56C51.6711 7.744 51.6711 9.904 51.6711 12.088H51.6951ZM62.1568 5.128C62.1568 4.192 62.1568 3.256 62.1568 2.32C62.1568 1.648 62.2288 1.624 62.8768 1.528C63.9088 1.384 64.9408 1.336 65.9488 1.456C66.8848 1.576 67.7968 1.576 68.7328 1.528C70.7728 1.456 72.7888 1.336 74.8288 1.24C74.9728 1.216 75.0928 1.216 75.2368 1.216C75.8368 1.288 75.9808 1.408 76.0048 2.032C76.0288 2.944 76.0288 3.856 76.0288 4.768C76.0288 5.368 75.9328 5.464 75.3808 5.512C74.9968 5.56 74.6368 5.584 74.2768 5.608C72.6208 5.68 70.9648 5.728 69.3328 5.8C68.6368 5.824 67.9408 5.848 67.2448 5.896C66.8368 5.944 66.7648 5.992 66.7648 6.424C66.7648 7.648 66.7888 8.848 66.8128 10.072C66.8368 10.552 66.8608 11.032 66.8848 11.512C66.9088 11.896 66.9808 11.944 67.3648 11.896C68.7088 11.68 70.0288 11.464 71.3728 11.272C71.4448 11.248 71.5408 11.224 71.6128 11.224C72.2368 11.152 72.3568 11.248 72.4528 11.824C72.6208 12.712 72.7648 13.576 72.8848 14.464C72.9808 15.232 72.9328 15.28 72.2128 15.424C70.9648 15.664 69.7168 15.856 68.4928 16.072C68.1328 16.12 67.7968 16.168 67.4608 16.24C67.1728 16.264 67.0288 16.432 67.0288 16.72C67.0288 17.392 67.0288 18.064 67.0528 18.736C67.0528 19.048 67.2448 19.12 67.5328 19.096C69.2608 18.928 70.9888 18.784 72.7168 18.664C73.7968 18.568 74.8768 18.52 75.9568 18.472C76.5808 18.448 76.6288 18.496 76.7008 19.096C76.8448 20.08 76.9168 21.04 76.9168 22.024C76.9168 22.456 76.8688 22.552 76.4128 22.624C75.9328 22.72 75.4528 22.744 74.9728 22.792C73.6768 22.912 72.3568 23.008 71.0368 23.104C69.0448 23.272 67.0528 23.416 65.0608 23.584C64.8928 23.584 64.7008 23.608 64.5328 23.608C64.2688 23.632 64.0288 23.56 63.9328 23.248C63.8848 22.936 63.6448 22.864 63.3568 22.84C62.8528 22.792 62.6848 22.624 62.6128 22.12C62.5888 21.952 62.5888 21.808 62.5648 21.664C62.5168 19.288 62.4688 16.936 62.4208 14.56C62.3248 11.416 62.2288 8.272 62.1328 5.128C62.1568 5.128 62.1568 5.128 62.1568 5.128ZM77.6964 12.208C77.6964 9.472 77.6964 6.736 77.6724 4.024C77.6724 3.208 77.7444 2.416 77.7684 1.6C77.7924 0.951999 77.8884 0.855999 78.5364 0.831999C80.0484 0.783998 81.5604 0.735999 83.0964 0.711999C84.9924 0.663999 86.9124 0.639999 88.8084 0.615999C89.0244 0.592 89.2164 0.592 89.4084 0.615999C89.7924 0.663999 89.9124 0.783998 89.9604 1.216C90.0564 1.816 90.0564 1.816 90.6564 1.888C90.9444 1.936 91.2324 1.984 91.4964 2.008C91.8564 2.032 92.0004 2.2 92.0244 2.536C92.0244 2.656 92.0244 2.752 92.0244 2.872C92.0004 5.56 91.9524 8.248 91.9044 10.936C91.9044 11.32 91.9044 11.704 91.3764 11.752C91.2324 11.752 91.1364 11.872 91.1844 12.016C91.3284 12.496 90.9924 12.64 90.6804 12.784C89.6244 13.288 88.5684 13.816 87.4884 14.296C86.2884 14.848 86.5764 14.752 87.1764 15.592C88.3764 17.272 89.6004 18.928 90.8244 20.608C91.2084 21.136 91.2084 21.256 90.6564 21.664C89.8644 22.24 89.0244 22.816 88.2084 23.368C87.6324 23.728 87.5364 23.704 87.1524 23.152C85.7604 21.184 84.3684 19.216 82.9764 17.248C82.8324 17.056 82.7604 16.672 82.4484 16.768C82.1364 16.864 82.2564 17.224 82.2564 17.464C82.2324 18.856 82.2324 20.248 82.2324 21.616C82.2324 22.504 82.0884 22.624 81.2004 22.648C80.2404 22.696 79.3044 22.552 78.3444 22.528C77.8404 22.528 77.6724 22.384 77.6724 21.856C77.6484 20.992 77.6724 20.128 77.6724 19.264C77.6724 16.912 77.6724 14.56 77.6724 12.208C77.6724 12.208 77.6724 12.208 77.6964 12.208ZM82.2564 8.584C82.2564 9.616 82.2564 10.624 82.2564 11.656C82.2564 12.064 82.3284 12.112 82.7124 11.92C84.1284 11.248 85.5684 10.552 86.9844 9.88C87.2964 9.712 87.4164 9.496 87.4164 9.16C87.4164 7.984 87.4404 6.832 87.4404 5.656C87.4404 5.128 87.3684 5.056 86.8164 5.056C85.4964 5.056 84.1764 5.056 82.8564 5.056C82.3044 5.056 82.2804 5.128 82.2564 5.68C82.2564 6.64 82.2564 7.624 82.2564 8.584Z" fill="#FF9900"/>
</svg>
