<svg width="92" height="24" viewBox="0 0 92 24" fill="none" xmlns="http://www.w3.org/2000/svg">
<path d="M0.399563 12.208C0.399563 9.472 0.399563 6.736 0.375563 4.024C0.375563 3.208 0.447563 2.416 0.471563 1.6C0.495563 0.951999 0.591563 0.855999 1.23956 0.831999C2.75156 0.783998 4.26356 0.735999 5.79956 0.711999C7.69556 0.663999 9.61556 0.639999 11.5116 0.615999C11.7276 0.592 11.9196 0.592 12.1116 0.615999C12.4956 0.663999 12.6156 0.783998 12.6636 1.216C12.7596 1.816 12.7596 1.816 13.3596 1.888C13.6476 1.936 13.9356 1.984 14.1996 2.008C14.5596 2.032 14.7036 2.2 14.7276 2.536C14.7276 2.656 14.7276 2.752 14.7276 2.872C14.7036 5.56 14.6556 8.248 14.6076 10.936C14.6076 11.32 14.6076 11.704 14.0796 11.752C13.9356 11.752 13.8396 11.872 13.8876 12.016C14.0316 12.496 13.6956 12.64 13.3836 12.784C12.3276 13.288 11.2716 13.816 10.1916 14.296C8.99156 14.848 9.27956 14.752 9.87956 15.592C11.0796 17.272 12.3036 18.928 13.5276 20.608C13.9116 21.136 13.9116 21.256 13.3596 21.664C12.5676 22.24 11.7276 22.816 10.9116 23.368C10.3356 23.728 10.2396 23.704 9.85556 23.152C8.46356 21.184 7.07156 19.216 5.67956 17.248C5.53556 17.056 5.46356 16.672 5.15156 16.768C4.83956 16.864 4.95956 17.224 4.95956 17.464C4.93556 18.856 4.93556 20.248 4.93556 21.616C4.93556 22.504 4.79156 22.624 3.90356 22.648C2.94356 22.696 2.00756 22.552 1.04756 22.528C0.543563 22.528 0.375563 22.384 0.375563 21.856C0.351562 20.992 0.375563 20.128 0.375563 19.264C0.375563 16.912 0.375563 14.56 0.375563 12.208C0.375563 12.208 0.375563 12.208 0.399563 12.208ZM4.95956 8.584C4.95956 9.616 4.95956 10.624 4.95956 11.656C4.95956 12.064 5.03156 12.112 5.41556 11.92C6.83156 11.248 8.27156 10.552 9.68756 9.88C9.99956 9.712 10.1196 9.496 10.1196 9.16C10.1196 7.984 10.1436 6.832 10.1436 5.656C10.1436 5.128 10.0716 5.056 9.51956 5.056C8.19956 5.056 6.87956 5.056 5.55956 5.056C5.00756 5.056 4.98356 5.128 4.95956 5.68C4.95956 6.64 4.95956 7.624 4.95956 8.584ZM15.4693 5.128C15.4693 4.192 15.4693 3.256 15.4693 2.32C15.4693 1.648 15.5413 1.624 16.1893 1.528C17.2213 1.384 18.2533 1.336 19.2613 1.456C20.1973 1.576 21.1093 1.576 22.0453 1.528C24.0853 1.456 26.1013 1.336 28.1413 1.24C28.2853 1.216 28.4053 1.216 28.5493 1.216C29.1493 1.288 29.2933 1.408 29.3173 2.032C29.3413 2.944 29.3413 3.856 29.3413 4.768C29.3413 5.368 29.2453 5.464 28.6933 5.512C28.3093 5.56 27.9493 5.584 27.5893 5.608C25.9333 5.68 24.2773 5.728 22.6453 5.8C21.9493 5.824 21.2533 5.848 20.5573 5.896C20.1493 5.944 20.0773 5.992 20.0773 6.424C20.0773 7.648 20.1013 8.848 20.1253 10.072C20.1493 10.552 20.1733 11.032 20.1973 11.512C20.2213 11.896 20.2933 11.944 20.6773 11.896C22.0213 11.68 23.3413 11.464 24.6853 11.272C24.7573 11.248 24.8533 11.224 24.9253 11.224C25.5493 11.152 25.6693 11.248 25.7653 11.824C25.9333 12.712 26.0773 13.576 26.1973 14.464C26.2933 15.232 26.2453 15.28 25.5253 15.424C24.2773 15.664 23.0293 15.856 21.8053 16.072C21.4453 16.12 21.1093 16.168 20.7733 16.24C20.4853 16.264 20.3413 16.432 20.3413 16.72C20.3413 17.392 20.3413 18.064 20.3653 18.736C20.3653 19.048 20.5573 19.12 20.8453 19.096C22.5733 18.928 24.3013 18.784 26.0293 18.664C27.1093 18.568 28.1893 18.52 29.2693 18.472C29.8933 18.448 29.9413 18.496 30.0133 19.096C30.1573 20.08 30.2293 21.04 30.2293 22.024C30.2293 22.456 30.1813 22.552 29.7253 22.624C29.2453 22.72 28.7653 22.744 28.2853 22.792C26.9893 22.912 25.6693 23.008 24.3493 23.104C22.3573 23.272 20.3653 23.416 18.3733 23.584C18.2053 23.584 18.0133 23.608 17.8453 23.608C17.5813 23.632 17.3413 23.56 17.2453 23.248C17.1973 22.936 16.9573 22.864 16.6693 22.84C16.1653 22.792 15.9973 22.624 15.9253 22.12C15.9013 21.952 15.9013 21.808 15.8773 21.664C15.8293 19.288 15.7813 16.936 15.7333 14.56C15.6373 11.416 15.5413 8.272 15.4453 5.128C15.4693 5.128 15.4693 5.128 15.4693 5.128ZM38.5384 14.392C38.7064 14.248 38.7064 14.08 38.7544 13.936C39.6184 10.336 40.4824 6.736 41.3464 3.112C41.3704 3.04 41.3944 2.944 41.4184 2.872C41.5624 2.44 41.6344 2.368 42.0664 2.464C42.8824 2.608 43.6744 2.824 44.4664 3.04C44.8024 3.136 45.1384 3.232 45.4744 3.328C45.8824 3.472 45.9064 3.544 45.8344 3.952C45.7624 4.288 45.6904 4.6 45.5944 4.912C44.1784 10.816 42.7384 16.72 41.3224 22.624C41.2984 22.696 41.2744 22.744 41.2744 22.816C41.0824 23.512 40.9864 23.584 40.2664 23.44C40.1944 23.416 40.1224 23.392 40.0744 23.392C39.2584 23.104 38.4664 23.104 37.6744 23.464C37.6264 23.488 37.5784 23.488 37.5544 23.512C36.8344 23.704 36.7624 23.68 36.5464 23.008C35.0584 18.472 33.5944 13.912 32.1064 9.376C31.5544 7.672 31.0024 5.944 30.4504 4.24C30.2344 3.544 30.2584 3.472 30.9304 3.232C31.8664 2.92 32.8264 2.632 33.7864 2.32C34.4824 2.104 34.5304 2.128 34.7704 2.824C35.4184 4.84 36.0664 6.88 36.7384 8.896C37.2664 10.504 37.7704 12.112 38.2984 13.72C38.3704 13.936 38.4664 14.152 38.5384 14.392ZM49.1852 0.783998C50.4572 0.831999 51.8012 0.855999 53.1452 0.904C53.7212 0.927999 53.8172 1.048 53.8412 1.624C53.8892 2.608 53.8412 3.616 53.7452 4.6C53.6972 5.032 53.6012 5.128 53.1692 5.152C52.1612 5.224 52.1852 5.224 52.1612 6.208C52.1612 9.184 52.1612 12.16 52.1372 15.136C52.1132 16.216 52.0652 17.296 52.0412 18.4C52.0412 18.568 52.0652 18.736 52.0412 18.904C52.0412 19.24 52.1852 19.36 52.5212 19.408C53.2172 19.456 53.2172 19.48 53.2172 20.176C53.2172 21.016 53.2172 21.856 53.1932 22.696C53.1692 23.536 53.0732 23.632 52.2812 23.608C50.6492 23.584 49.0172 23.536 47.4092 23.488C46.7852 23.464 46.6892 23.368 46.6652 22.768C46.6412 21.784 46.6892 20.8 46.7852 19.84C46.7852 19.576 46.8332 19.336 47.1452 19.288C47.5532 19.24 47.5532 18.976 47.5532 18.688C47.5532 17.344 47.5772 16.024 47.5772 14.704C47.5772 11.632 47.6972 8.536 47.7692 5.464C47.7692 5.104 47.6492 5.032 47.3372 4.984C46.7132 4.912 46.6652 4.864 46.6892 4.24C46.6892 3.304 46.6172 2.344 46.7612 1.384C46.8572 0.879999 46.9052 0.808 47.4332 0.808C47.9852 0.783998 48.5612 0.783998 49.1852 0.783998ZM54.6334 5.128C54.6334 4.192 54.6334 3.256 54.6334 2.32C54.6334 1.648 54.7054 1.624 55.3534 1.528C56.3854 1.384 57.4174 1.336 58.4254 1.456C59.3614 1.576 60.2734 1.576 61.2094 1.528C63.2494 1.456 65.2654 1.336 67.3054 1.24C67.4494 1.216 67.5694 1.216 67.7134 1.216C68.3134 1.288 68.4574 1.408 68.4814 2.032C68.5054 2.944 68.5054 3.856 68.5054 4.768C68.5054 5.368 68.4094 5.464 67.8574 5.512C67.4734 5.56 67.1134 5.584 66.7534 5.608C65.0974 5.68 63.4414 5.728 61.8094 5.8C61.1134 5.824 60.4174 5.848 59.7214 5.896C59.3134 5.944 59.2414 5.992 59.2414 6.424C59.2414 7.648 59.2654 8.848 59.2894 10.072C59.3134 10.552 59.3374 11.032 59.3614 11.512C59.3854 11.896 59.4574 11.944 59.8414 11.896C61.1854 11.68 62.5054 11.464 63.8494 11.272C63.9214 11.248 64.0174 11.224 64.0894 11.224C64.7134 11.152 64.8334 11.248 64.9294 11.824C65.0974 12.712 65.2414 13.576 65.3614 14.464C65.4574 15.232 65.4094 15.28 64.6894 15.424C63.4414 15.664 62.1934 15.856 60.9694 16.072C60.6094 16.12 60.2734 16.168 59.9374 16.24C59.6494 16.264 59.5054 16.432 59.5054 16.72C59.5054 17.392 59.5054 18.064 59.5294 18.736C59.5294 19.048 59.7214 19.12 60.0094 19.096C61.7374 18.928 63.4654 18.784 65.1934 18.664C66.2734 18.568 67.3534 18.52 68.4334 18.472C69.0574 18.448 69.1054 18.496 69.1774 19.096C69.3214 20.08 69.3934 21.04 69.3934 22.024C69.3934 22.456 69.3454 22.552 68.8894 22.624C68.4094 22.72 67.9294 22.744 67.4494 22.792C66.1534 22.912 64.8334 23.008 63.5134 23.104C61.5214 23.272 59.5294 23.416 57.5374 23.584C57.3694 23.584 57.1774 23.608 57.0094 23.608C56.7454 23.632 56.5054 23.56 56.4094 23.248C56.3614 22.936 56.1214 22.864 55.8334 22.84C55.3294 22.792 55.1614 22.624 55.0894 22.12C55.0654 21.952 55.0654 21.808 55.0414 21.664C54.9934 19.288 54.9454 16.936 54.8974 14.56C54.8014 11.416 54.7054 8.272 54.6094 5.128C54.6334 5.128 54.6334 5.128 54.6334 5.128ZM77.973 13.24C78.117 12.736 78.261 12.208 78.381 11.68C78.861 9.928 79.317 8.176 79.773 6.4C79.821 6.28 79.845 6.16 79.893 6.016C79.965 5.752 80.109 5.632 80.421 5.704C80.757 5.8 81.093 5.848 81.429 5.944C81.933 6.088 82.437 6.112 82.965 5.992C83.181 5.92 83.421 5.896 83.661 5.848C84.309 5.728 84.381 5.776 84.501 6.376C84.717 7.24 84.885 8.08 85.077 8.92C85.293 9.88 85.509 10.816 85.749 11.896C85.965 11.488 85.965 11.128 86.037 10.816C86.469 8.584 86.901 6.328 87.333 4.096C87.357 4 87.357 3.88 87.381 3.784C87.429 3.472 87.597 3.352 87.933 3.376C88.437 3.424 88.965 3.52 89.469 3.64C90.069 3.76 90.693 3.88 91.317 4.024C91.893 4.144 91.917 4.216 91.821 4.768C91.653 5.656 91.485 6.568 91.293 7.456C90.309 12.568 89.325 17.68 88.341 22.792C88.317 22.912 88.293 23.056 88.245 23.176C88.125 23.608 88.101 23.608 87.669 23.56C87.573 23.56 87.501 23.56 87.405 23.536C86.397 23.248 85.413 23.344 84.405 23.56C83.805 23.68 83.733 23.632 83.613 23.032C83.229 21.448 82.893 19.864 82.533 18.28C82.365 17.536 82.197 16.792 81.933 16.048C81.669 17.008 81.429 17.968 81.165 18.928C80.901 19.912 80.661 20.896 80.397 21.88C80.229 22.48 80.181 22.504 79.581 22.384C79.557 22.36 79.533 22.36 79.509 22.36C78.525 21.976 77.565 22.024 76.605 22.384C75.981 22.6 75.885 22.504 75.717 21.904C74.421 17.656 73.125 13.384 71.853 9.136C71.349 7.48 70.869 5.848 70.365 4.216C70.317 4.072 70.269 3.928 70.221 3.76C70.125 3.304 70.149 3.184 70.605 3.04C71.661 2.728 72.741 2.416 73.797 2.128C74.349 1.984 74.421 2.032 74.589 2.584C75.141 4.36 75.669 6.112 76.197 7.888C76.701 9.496 77.181 11.128 77.661 12.736C77.709 12.904 77.781 13.072 77.829 13.24C77.877 13.24 77.925 13.24 77.973 13.24Z" fill="#FF0000"/>
</svg>
